<svg xmlns="http://www.w3.org/2000/svg" xmlns:xlink="http://www.w3.org/1999/xlink" xmlns:lucid="lucid" width="1306" height="878.5"><g transform="translate(-314 -174)" lucid:page-tab-id="0_0"><path d="M0 0h1870.87v1322.84H0z" fill="#fff"/><path d="M360 226.5a6 6 0 0 1 6-6h408a6 6 0 0 1 6 6v377a6 6 0 0 1-6 6H366a6 6 0 0 1-6-6z" fill="#fff"/><path d="M360 260.5v-34a6 6 0 0 1 6-6h408a6 6 0 0 1 6 6v34" fill="#b8f5ed"/><path d="M360 226.5a6 6 0 0 1 6-6h408a6 6 0 0 1 6 6v377a6 6 0 0 1-6 6H366a6 6 0 0 1-6-6zM360 260.5h420M420 260.5v349M577.33 260.5v349" stroke="#3a414a" fill="none"/><use xlink:href="#a" transform="matrix(1,0,0,1,370,220.49995) translate(177.10493827160494 24.444444444444443)"/><use xlink:href="#b" transform="matrix(1,0,0,1,365,262.99995) translate(10.185185185185187 28.444444444444443)"/><use xlink:href="#c" transform="matrix(1,0,0,1,425,262.99995) translate(0 28.444444444444443)"/><use xlink:href="#d" transform="matrix(1,0,0,1,582.3333333333333,262.99995) translate(0 16.799999999999997)"/><use xlink:href="#e" transform="matrix(1,0,0,1,582.3333333333333,262.99995) translate(33.900000000000006 16.799999999999997)"/><use xlink:href="#f" transform="matrix(1,0,0,1,582.3333333333333,262.99995) translate(76.80000000000001 16.799999999999997)"/><use xlink:href="#g" transform="matrix(1,0,0,1,582.3333333333333,262.99995) translate(0 38.4)"/><use xlink:href="#h" transform="matrix(1,0,0,1,425,315.99995) translate(0 20.444444444444443)"/><use xlink:href="#i" transform="matrix(1,0,0,1,582.3333333333333,315.99995) translate(0 19.6)"/><use xlink:href="#j" transform="matrix(1,0,0,1,582.3333333333333,315.99995) translate(96.80000000000001 19.6)"/><use xlink:href="#k" transform="matrix(1,0,0,1,582.3333333333333,315.99995) translate(126.80000000000001 19.6)"/><use xlink:href="#l" transform="matrix(1,0,0,1,425,352.99995) translate(0 20.444444444444443)"/><use xlink:href="#m" transform="matrix(1,0,0,1,582.3333333333333,352.99995) translate(0 19.6)"/><use xlink:href="#n" transform="matrix(1,0,0,1,582.3333333333333,352.99995) translate(96.80000000000001 19.6)"/><use xlink:href="#o" transform="matrix(1,0,0,1,582.3333333333333,352.99995) translate(126.80000000000001 19.6)"/><use xlink:href="#p" transform="matrix(1,0,0,1,425,389.99995) translate(0 20.444444444444443)"/><use xlink:href="#m" transform="matrix(1,0,0,1,582.3333333333333,389.99995) translate(0 19.6)"/><use xlink:href="#n" transform="matrix(1,0,0,1,582.3333333333333,389.99995) translate(96.80000000000001 19.6)"/><use xlink:href="#o" transform="matrix(1,0,0,1,582.3333333333333,389.99995) translate(126.80000000000001 19.6)"/><use xlink:href="#q" transform="matrix(1,0,0,1,425,426.99995) translate(0 20.444444444444443)"/><use xlink:href="#m" transform="matrix(1,0,0,1,582.3333333333333,426.99995) translate(0 19.6)"/><use xlink:href="#n" transform="matrix(1,0,0,1,582.3333333333333,426.99995) translate(96.80000000000001 19.6)"/><use xlink:href="#o" transform="matrix(1,0,0,1,582.3333333333333,426.99995) translate(126.80000000000001 19.6)"/><use xlink:href="#r" transform="matrix(1,0,0,1,425,463.99995) translate(0 20.444444444444443)"/><use xlink:href="#s" transform="matrix(1,0,0,1,582.3333333333333,463.99995) translate(0 19.6)"/><use xlink:href="#j" transform="matrix(1,0,0,1,582.3333333333333,463.99995) translate(73.9 19.6)"/><use xlink:href="#k" transform="matrix(1,0,0,1,582.3333333333333,463.99995) translate(103.9 19.6)"/><use xlink:href="#t" transform="matrix(1,0,0,1,425,500.99995) translate(0 20.444444444444443)"/><use xlink:href="#i" transform="matrix(1,0,0,1,582.3333333333333,500.99995) translate(0 19.6)"/><use xlink:href="#j" transform="matrix(1,0,0,1,582.3333333333333,500.99995) translate(96.80000000000001 19.6)"/><use xlink:href="#k" transform="matrix(1,0,0,1,582.3333333333333,500.99995) translate(126.80000000000001 19.6)"/><use xlink:href="#u" transform="matrix(1,0,0,1,425,537.99995) translate(0 20.444444444444443)"/><use xlink:href="#m" transform="matrix(1,0,0,1,582.3333333333333,537.99995) translate(0 19.6)"/><use xlink:href="#n" transform="matrix(1,0,0,1,582.3333333333333,537.99995) translate(96.80000000000001 19.6)"/><use xlink:href="#o" transform="matrix(1,0,0,1,582.3333333333333,537.99995) translate(126.80000000000001 19.6)"/><use xlink:href="#v" transform="matrix(1,0,0,1,425,574.99995) translate(0 20.444444444444443)"/><use xlink:href="#m" transform="matrix(1,0,0,1,582.3333333333333,574.99995) translate(0 19.6)"/><use xlink:href="#n" transform="matrix(1,0,0,1,582.3333333333333,574.99995) translate(96.80000000000001 19.6)"/><use xlink:href="#o" transform="matrix(1,0,0,1,582.3333333333333,574.99995) translate(126.80000000000001 19.6)"/><path d="M380 686.5a6 6 0 0 1 6-6h568a6 6 0 0 1 6 6v340a6 6 0 0 1-6 6H386a6 6 0 0 1-6-6z" fill-opacity="0"/><path d="M380 720.5v-34a6 6 0 0 1 6-6h568a6 6 0 0 1 6 6v34" fill="#b8f5ed"/><path d="M380 686.5a6 6 0 0 1 6-6h568a6 6 0 0 1 6 6v340a6 6 0 0 1-6 6H386a6 6 0 0 1-6-6zM380 720.5h580M468 720.5v312M664 720.5v312" stroke="#3a414a" fill="none"/><use xlink:href="#w" transform="matrix(1,0,0,1,390,680.49995) translate(234.320987654321 24.444444444444443)"/><use xlink:href="#x" transform="matrix(1,0,0,1,385,722.99995) translate(24.185185185185187 28.444444444444443)"/><use xlink:href="#y" transform="matrix(1,0,0,1,473,722.99995) translate(0 28.444444444444443)"/><use xlink:href="#z" transform="matrix(1,0,0,1,669,722.99995) translate(0 16.799999999999997)"/><use xlink:href="#A" transform="matrix(1,0,0,1,669,722.99995) translate(33.900000000000006 16.799999999999997)"/><use xlink:href="#B" transform="matrix(1,0,0,1,669,722.99995) translate(76.80000000000001 16.799999999999997)"/><use xlink:href="#C" transform="matrix(1,0,0,1,669,722.99995) translate(0 38.4)"/><use xlink:href="#D" transform="matrix(1,0,0,1,385,775.99995) translate(24.833333333333336 20.444444444444443)"/><use xlink:href="#E" transform="matrix(1,0,0,1,473,775.99995) translate(0 20.444444444444443)"/><use xlink:href="#F" transform="matrix(1,0,0,1,669,775.99995) translate(0 19.6)"/><use xlink:href="#G" transform="matrix(1,0,0,1,473,812.99995) translate(0 20.444444444444443)"/><use xlink:href="#H" transform="matrix(1,0,0,1,669,812.99995) translate(0 19.6)"/><use xlink:href="#A" transform="matrix(1,0,0,1,669,812.99995) translate(38.900000000000006 19.6)"/><use xlink:href="#I" transform="matrix(1,0,0,1,669,812.99995) translate(81.80000000000001 19.6)"/><use xlink:href="#J" transform="matrix(1,0,0,1,473,849.99995) translate(0 20.444444444444443)"/><use xlink:href="#K" transform="matrix(1,0,0,1,669,849.99995) translate(0 19.6)"/><use xlink:href="#L" transform="matrix(1,0,0,1,473,886.99995) translate(0 20.444444444444443)"/><use xlink:href="#M" transform="matrix(1,0,0,1,669,886.99995) translate(0 19.6)"/><use xlink:href="#N" transform="matrix(1,0,0,1,473,923.99995) translate(0 20.444444444444443)"/><use xlink:href="#O" transform="matrix(1,0,0,1,669,923.99995) translate(0 19.6)"/><use xlink:href="#j" transform="matrix(1,0,0,1,669,923.99995) translate(123.70000000000002 19.6)"/><use xlink:href="#k" transform="matrix(1,0,0,1,669,923.99995) translate(153.70000000000002 19.6)"/><use xlink:href="#P" transform="matrix(1,0,0,1,473,960.99995) translate(0 20.444444444444443)"/><use xlink:href="#Q" transform="matrix(1,0,0,1,669,960.99995) translate(0 19.6)"/><use xlink:href="#j" transform="matrix(1,0,0,1,669,960.99995) translate(66.85000000000001 19.6)"/><use xlink:href="#k" transform="matrix(1,0,0,1,669,960.99995) translate(96.85000000000001 19.6)"/><use xlink:href="#R" transform="matrix(1,0,0,1,473,997.99995) translate(0 20.444444444444443)"/><use xlink:href="#s" transform="matrix(1,0,0,1,669,997.99995) translate(0 19.6)"/><use xlink:href="#j" transform="matrix(1,0,0,1,669,997.99995) translate(73.9 19.6)"/><use xlink:href="#k" transform="matrix(1,0,0,1,669,997.99995) translate(103.9 19.6)"/><path d="M570 200v-14a6 6 0 0 0-6-6H326a6 6 0 0 0-6 6v600a6 6 0 0 0 6 6h34.1" stroke="#3a414a" fill="none"/><path d="M580 200h-20M570 220v-20" stroke="#3a414a" fill="#fff"/><path d="M379.28 802l-20-10 20-10" stroke="#3a414a" fill="#fff" fill-opacity="0"/><path d="M379.28 792h-20" stroke="#3a414a" fill="#fff"/><path d="M1100 666.5a6 6 0 0 1 6-6h488a6 6 0 0 1 6 6v303a6 6 0 0 1-6 6h-488a6 6 0 0 1-6-6z" fill="#fff"/><path d="M1100 700.5v-34a6 6 0 0 1 6-6h488a6 6 0 0 1 6 6v34" fill="#b8f5ed"/><path d="M1100 666.5a6 6 0 0 1 6-6h488a6 6 0 0 1 6 6v303a6 6 0 0 1-6 6h-488a6 6 0 0 1-6-6zM1100 700.5h500M1160 700.5v275M1397.33 700.5v275" stroke="#3a414a" fill="none"/><g><use xlink:href="#S" transform="matrix(1,0,0,1,1110,660.49995) translate(176.91358024691357 24.444444444444443)"/></g><g><use xlink:href="#b" transform="matrix(1,0,0,1,1105,702.99995) translate(10.185185185185187 28.444444444444443)"/></g><g><use xlink:href="#T" transform="matrix(1,0,0,1,1165,702.99995) translate(0 28.444444444444443)"/></g><g><use xlink:href="#d" transform="matrix(1,0,0,1,1402.3333333333342,702.99995) translate(0 16.799999999999997)"/><use xlink:href="#e" transform="matrix(1,0,0,1,1402.3333333333342,702.99995) translate(33.900000000000006 16.799999999999997)"/><use xlink:href="#f" transform="matrix(1,0,0,1,1402.3333333333342,702.99995) translate(76.80000000000001 16.799999999999997)"/><use xlink:href="#g" transform="matrix(1,0,0,1,1402.3333333333342,702.99995) translate(0 38.4)"/></g><g><use xlink:href="#D" transform="matrix(1,0,0,1,1105,755.99995) translate(10.833333333333336 20.444444444444443)"/></g><g><use xlink:href="#U" transform="matrix(1,0,0,1,1165,755.99995) translate(0 20.444444444444443)"/></g><g><use xlink:href="#V" transform="matrix(1,0,0,1,1402.3333333333342,755.99995) translate(0 19.555555555555557)"/><use xlink:href="#W" transform="matrix(1,0,0,1,1402.3333333333342,755.99995) translate(33.1358024691358 19.555555555555557)"/><use xlink:href="#X" transform="matrix(1,0,0,1,1402.3333333333342,755.99995) translate(75.16049382716048 19.555555555555557)"/></g><g><use xlink:href="#D" transform="matrix(1,0,0,1,1105,792.99995) translate(10.833333333333336 20.444444444444443)"/></g><g><use xlink:href="#Y" transform="matrix(1,0,0,1,1165,792.99995) translate(0 20.444444444444443)"/></g><g><use xlink:href="#V" transform="matrix(1,0,0,1,1402.3333333333342,792.99995) translate(0 19.555555555555557)"/><use xlink:href="#W" transform="matrix(1,0,0,1,1402.3333333333342,792.99995) translate(33.1358024691358 19.555555555555557)"/><use xlink:href="#X" transform="matrix(1,0,0,1,1402.3333333333342,792.99995) translate(75.16049382716048 19.555555555555557)"/></g><g><use xlink:href="#Z" transform="matrix(1,0,0,1,1165,829.99995) translate(0 20.444444444444443)"/></g><g><use xlink:href="#aa" transform="matrix(1,0,0,1,1402.3333333333342,829.99995) translate(0 20.444444444444443)"/><use xlink:href="#ab" transform="matrix(1,0,0,1,1402.3333333333342,829.99995) translate(119.50617283950619 20.444444444444443)"/><use xlink:href="#ac" transform="matrix(1,0,0,1,1402.3333333333342,829.99995) translate(156.54320987654324 20.444444444444443)"/></g><g><use xlink:href="#ad" transform="matrix(1,0,0,1,1165,866.99995) translate(0 20.444444444444443)"/></g><g><use xlink:href="#ae" transform="matrix(1,0,0,1,1402.3333333333342,866.99995) translate(0 20.444444444444443)"/><use xlink:href="#ab" transform="matrix(1,0,0,1,1402.3333333333342,866.99995) translate(86.17283950617283 20.444444444444443)"/><use xlink:href="#ac" transform="matrix(1,0,0,1,1402.3333333333342,866.99995) translate(123.20987654320987 20.444444444444443)"/></g><g><use xlink:href="#af" transform="matrix(1,0,0,1,1165,903.99995) translate(0 20.444444444444443)"/></g><g><use xlink:href="#ag" transform="matrix(1,0,0,1,1402.3333333333342,903.99995) translate(0 20.444444444444443)"/><use xlink:href="#ab" transform="matrix(1,0,0,1,1402.3333333333342,903.99995) translate(91.23456790123457 20.444444444444443)"/><use xlink:href="#ac" transform="matrix(1,0,0,1,1402.3333333333342,903.99995) translate(128.2716049382716 20.444444444444443)"/></g><g><use xlink:href="#ah" transform="matrix(1,0,0,1,1165,940.99995) translate(0 20.444444444444443)"/></g><g><use xlink:href="#ai" transform="matrix(1,0,0,1,1402.3333333333342,940.99995) translate(0 20.444444444444443)"/><use xlink:href="#aj" transform="matrix(1,0,0,1,1402.3333333333342,940.99995) translate(131.85185185185188 20.444444444444443)"/><use xlink:href="#k" transform="matrix(1,0,0,1,1402.3333333333342,940.99995) translate(161.85185185185188 20.444444444444443)"/></g><path d="M980.5 903h43.5a6 6 0 0 0 6-6V778a6 6 0 0 1 6-6h44.1" stroke="#3a414a" fill="none"/><path d="M980.5 913v-20M960.5 903h20" stroke="#3a414a" fill="#fff"/><path d="M1099.28 782l-20-10 20-10" stroke="#3a414a" fill="#fff" fill-opacity="0"/><path d="M1099.28 772h-20" stroke="#3a414a" fill="#fff"/><path d="M980.5 903h43.5a6 6 0 0 0 6-6v-82a6 6 0 0 1 6-6h44.1" stroke="#3a414a" fill="none"/><path d="M980.5 913v-20M960.5 903h20" stroke="#3a414a" fill="#fff"/><path d="M1099.28 819l-20-10 20-10" stroke="#3a414a" fill="#fff" fill-opacity="0"/><path d="M1099.28 809h-20" stroke="#3a414a" fill="#fff"/><defs><path fill="#3a414a" d="M232-93c-1 65-40 97-104 97C67 4 28-28 28-90v-158h33c8 89-33 224 67 224 102 0 64-133 71-224h33v155" id="ak"/><path fill="#3a414a" d="M135-143c-3-34-86-38-87 0 15 53 115 12 119 90S17 21 10-45l28-5c4 36 97 45 98 0-10-56-113-15-118-90-4-57 82-63 122-42 12 7 21 19 24 35" id="al"/><path fill="#3a414a" d="M100-194c63 0 86 42 84 106H49c0 40 14 67 53 68 26 1 43-12 49-29l28 8c-11 28-37 45-77 45C44 4 14-33 15-96c1-61 26-98 85-98zm52 81c6-60-76-77-97-28-3 7-6 17-6 28h103" id="am"/><path fill="#3a414a" d="M114-163C36-179 61-72 57 0H25l-1-190h30c1 12-1 29 2 39 6-27 23-49 58-41v29" id="an"/><g id="a"><use transform="matrix(0.06172839506172839,0,0,0.06172839506172839,0,0)" xlink:href="#ak"/><use transform="matrix(0.06172839506172839,0,0,0.06172839506172839,15.987654320987653,0)" xlink:href="#al"/><use transform="matrix(0.06172839506172839,0,0,0.06172839506172839,27.098765432098766,0)" xlink:href="#am"/><use transform="matrix(0.06172839506172839,0,0,0.06172839506172839,39.44444444444444,0)" xlink:href="#an"/></g><path fill="#3a414a" d="M30-248c87 1 191-15 191 75 0 78-77 80-158 76V0H30v-248zm33 125c57 0 124 11 124-50 0-59-68-47-124-48v98" id="ao"/><path fill="#3a414a" d="M194 0L95-120 63-95V0H30v-248h33v124l119-124h40L117-140 236 0h-42" id="ap"/><g id="b"><use transform="matrix(0.06172839506172839,0,0,0.06172839506172839,0,0)" xlink:href="#ao"/><use transform="matrix(0.06172839506172839,0,0,0.06172839506172839,14.814814814814813,0)" xlink:href="#ap"/></g><path fill="#3a414a" d="M33 0v-248h34V0H33" id="aq"/><path fill="#3a414a" d="M30-248c118-7 216 8 213 122C240-48 200 0 122 0H30v-248zM63-27c89 8 146-16 146-99s-60-101-146-95v194" id="ar"/><g id="c"><use transform="matrix(0.06172839506172839,0,0,0.06172839506172839,0,0)" xlink:href="#ak"/><use transform="matrix(0.06172839506172839,0,0,0.06172839506172839,15.987654320987653,0)" xlink:href="#al"/><use transform="matrix(0.06172839506172839,0,0,0.06172839506172839,27.098765432098766,0)" xlink:href="#am"/><use transform="matrix(0.06172839506172839,0,0,0.06172839506172839,39.44444444444444,0)" xlink:href="#an"/><use transform="matrix(0.06172839506172839,0,0,0.06172839506172839,46.79012345679012,0)" xlink:href="#aq"/><use transform="matrix(0.06172839506172839,0,0,0.06172839506172839,52.96296296296296,0)" xlink:href="#ar"/></g><path fill="#333" d="M14 0l48-248h34L48 0H14" id="as"/><path fill="#333" d="M173 0L80-213 41 0H11l48-248h37l94 214 40-214h30L212 0h-39" id="at"/><path fill="#333" d="M151-220L108 0H75l42-220H32l6-28h203l-5 28h-85" id="au"/><g id="d"><use transform="matrix(0.05,0,0,0.05,0,0)" xlink:href="#as"/><use transform="matrix(0.05,0,0,0.05,5,0)" xlink:href="#at"/><use transform="matrix(0.05,0,0,0.05,17.950000000000003,0)" xlink:href="#au"/></g><path fill="#333" d="M20-101c0-91 52-143 145-150 126-9 127 168 53 223-23 17-55 32-93 32C57 4 20-33 20-101zm216-33c5-57-18-91-73-90-77 1-110 51-110 125 0 49 23 75 73 75 72-1 104-45 110-110" id="av"/><g id="e"><use transform="matrix(0.05,0,0,0.05,0,0)" xlink:href="#at"/><use transform="matrix(0.05,0,0,0.05,12.950000000000001,0)" xlink:href="#av"/><use transform="matrix(0.05,0,0,0.05,26.950000000000003,0)" xlink:href="#au"/></g><path fill="#333" d="M62-99C39-31 123 0 170-40s38-139 58-208h34C234-144 253 4 115 4 49 4 18-43 31-112l26-136h34" id="aw"/><path fill="#333" d="M11 0l48-248h34L50-27h125l-5 27H11" id="ax"/><g id="f"><use transform="matrix(0.05,0,0,0.05,0,0)" xlink:href="#at"/><use transform="matrix(0.05,0,0,0.05,12.950000000000001,0)" xlink:href="#aw"/><use transform="matrix(0.05,0,0,0.05,25.900000000000002,0)" xlink:href="#ax"/><use transform="matrix(0.05,0,0,0.05,35.900000000000006,0)" xlink:href="#ax"/></g><path fill="#333" d="M187 0l-14-72H61L19 0h-37l149-248h38L221 0h-34zm-19-99l-22-123L76-99h92" id="ay"/><path fill="#333" d="M-28 44V31h207v13H-28" id="az"/><path fill="#333" d="M125-24c46 0 70-25 89-51l25 16C214-24 183 4 123 4 8 4-5-146 60-208c32-50 158-61 191-5 5 7 9 14 11 22l-32 10c-9-28-33-43-69-43-74 0-108 51-108 125 0 46 24 75 72 75" id="aA"/><path fill="#333" d="M249-183c0 48-29 72-75 77L221 0h-36l-43-103H65L45 0H11l48-248c83 2 190-17 190 65zm-34 3c0-55-74-39-127-41l-18 92c63-1 145 13 145-51" id="aB"/><path fill="#333" d="M11 0l48-248h184l-5 28H87l-15 79h140l-5 27H67L50-27h158l-5 27H11" id="aC"/><path fill="#333" d="M222 0l43-216c-8 16-17 34-26 49L143 0h-22L81-216 41 0H11l48-248h42l38 208 116-208h45L252 0h-30" id="aD"/><g id="g"><use transform="matrix(0.05,0,0,0.05,0,0)" xlink:href="#ay"/><use transform="matrix(0.05,0,0,0.05,12,0)" xlink:href="#aw"/><use transform="matrix(0.05,0,0,0.05,24.950000000000003,0)" xlink:href="#au"/><use transform="matrix(0.05,0,0,0.05,35.550000000000004,0)" xlink:href="#av"/><use transform="matrix(0.05,0,0,0.05,49.550000000000004,0)" xlink:href="#az"/><use transform="matrix(0.05,0,0,0.05,59.550000000000004,0)" xlink:href="#as"/><use transform="matrix(0.05,0,0,0.05,64.55000000000001,0)" xlink:href="#at"/><use transform="matrix(0.05,0,0,0.05,77.50000000000001,0)" xlink:href="#aA"/><use transform="matrix(0.05,0,0,0.05,90.45000000000002,0)" xlink:href="#aB"/><use transform="matrix(0.05,0,0,0.05,103.40000000000003,0)" xlink:href="#aC"/><use transform="matrix(0.05,0,0,0.05,115.40000000000003,0)" xlink:href="#aD"/><use transform="matrix(0.05,0,0,0.05,130.35000000000002,0)" xlink:href="#aC"/><use transform="matrix(0.05,0,0,0.05,142.35000000000002,0)" xlink:href="#at"/><use transform="matrix(0.05,0,0,0.05,155.3,0)" xlink:href="#au"/></g><path fill="#3a414a" d="M63-220v92h138v28H63V0H30v-248h175v28H63" id="aE"/><path fill="#3a414a" d="M24-231v-30h32v30H24zM24 0v-190h32V0H24" id="aF"/><path fill="#3a414a" d="M59-47c-2 24 18 29 38 22v24C64 9 27 4 27-40v-127H5v-23h24l9-43h21v43h35v23H59v120" id="aG"/><path fill="#3a414a" d="M190 0L58-211 59 0H30v-248h39L202-35l-2-213h31V0h-41" id="aH"/><path fill="#3a414a" d="M141-36C126-15 110 5 73 4 37 3 15-17 15-53c-1-64 63-63 125-63 3-35-9-54-41-54-24 1-41 7-42 31l-33-3c5-37 33-52 76-52 45 0 72 20 72 64v82c-1 20 7 32 28 27v20c-31 9-61-2-59-35zM48-53c0 20 12 33 32 33 41-3 63-29 60-74-43 2-92-5-92 41" id="aI"/><path fill="#3a414a" d="M210-169c-67 3-38 105-44 169h-31v-121c0-29-5-50-35-48C34-165 62-65 56 0H25l-1-190h30c1 10-1 24 2 32 10-44 99-50 107 0 11-21 27-35 58-36 85-2 47 119 55 194h-31v-121c0-29-5-49-35-48" id="aJ"/><g id="h"><use transform="matrix(0.06172839506172839,0,0,0.06172839506172839,0,0)" xlink:href="#aE"/><use transform="matrix(0.06172839506172839,0,0,0.06172839506172839,13.518518518518517,0)" xlink:href="#aF"/><use transform="matrix(0.06172839506172839,0,0,0.06172839506172839,18.39506172839506,0)" xlink:href="#an"/><use transform="matrix(0.06172839506172839,0,0,0.06172839506172839,25.74074074074074,0)" xlink:href="#al"/><use transform="matrix(0.06172839506172839,0,0,0.06172839506172839,36.85185185185185,0)" xlink:href="#aG"/><use transform="matrix(0.06172839506172839,0,0,0.06172839506172839,43.02469135802469,0)" xlink:href="#aH"/><use transform="matrix(0.06172839506172839,0,0,0.06172839506172839,59.01234567901234,0)" xlink:href="#aI"/><use transform="matrix(0.06172839506172839,0,0,0.06172839506172839,71.35802469135803,0)" xlink:href="#aJ"/><use transform="matrix(0.06172839506172839,0,0,0.06172839506172839,89.81481481481481,0)" xlink:href="#am"/></g><path fill="#333" d="M89 0H52L20-190h33L74-25l89-165h34" id="aK"/><path fill="#333" d="M165-48c-4 18 1 34 23 27l-3 20c-29 8-62 0-52-35h-2C116-14 99 4 63 4 30 4 8-16 8-49c0-68 71-67 138-67 10-26 0-56-31-54-26 1-42 9-47 31l-32-5c8-67 160-71 144 15-5 28-9 54-15 81zM42-50c3 52 80 24 89-6 7-12 7-24 11-38-47 1-103-4-100 44" id="aL"/><path fill="#333" d="M66-151c12-25 30-51 66-40l-6 26C45-176 58-65 38 0H6l36-190h30" id="aM"/><path fill="#333" d="M44-68c0 29 11 47 38 47 30 0 42-19 51-41l28 9C148-21 126 4 82 4 31 4 10-29 12-85c3-77 74-140 146-93 12 8 15 23 18 40l-31 5c-1-22-13-36-36-36-52 0-65 49-65 101" id="aN"/><path fill="#333" d="M67-158c15-20 31-36 64-36 94 0 33 127 27 194h-32l25-140c3-38-53-32-70-12C52-117 51-51 37 0H6l51-261h31" id="aO"/><path fill="#333" d="M17-49c1-102 45-165 103-212h30C92-210 49-145 49-46 49 4 63 43 85 75H54C30 43 18 2 17-49" id="aP"/><path fill="#333" d="M123-251c66 0 92 69 53 113C138-94 73-75 39-27h128l-5 27H-2c17-92 123-93 159-163 14-28-1-64-36-62-29 2-46 17-54 41l-30-6c13-36 37-61 86-61" id="aQ"/><path fill="#333" d="M16-82c0-90 25-169 113-169 48 0 68 33 68 82C197-79 170 4 84 4 37 4 16-31 16-82zm30 5c0 32 11 55 40 55 69 0 76-79 80-149 2-32-10-55-39-55-69 0-81 81-81 149" id="aR"/><path fill="#333" d="M98-137C97-35 54 29-4 75h-31C23 23 67-41 67-140c0-50-15-89-37-121h31c24 32 36 73 37 124" id="aS"/><g id="i"><use transform="matrix(0.05,0,0,0.05,0,0)" xlink:href="#aK"/><use transform="matrix(0.05,0,0,0.05,9,0)" xlink:href="#aL"/><use transform="matrix(0.05,0,0,0.05,19,0)" xlink:href="#aM"/><use transform="matrix(0.05,0,0,0.05,24.95,0)" xlink:href="#aN"/><use transform="matrix(0.05,0,0,0.05,33.95,0)" xlink:href="#aO"/><use transform="matrix(0.05,0,0,0.05,43.95,0)" xlink:href="#aL"/><use transform="matrix(0.05,0,0,0.05,53.95,0)" xlink:href="#aM"/><use transform="matrix(0.05,0,0,0.05,59.900000000000006,0)" xlink:href="#aP"/><use transform="matrix(0.05,0,0,0.05,65.85000000000001,0)" xlink:href="#aQ"/><use transform="matrix(0.05,0,0,0.05,75.85000000000001,0)" xlink:href="#aR"/><use transform="matrix(0.05,0,0,0.05,85.85000000000001,0)" xlink:href="#aS"/></g><path fill="#333" d="M67-158c22-48 132-52 116 29L158 0h-32l25-140c3-38-53-32-70-12C52-117 51-52 38 0H6l36-190h30" id="aT"/><path fill="#333" d="M30-147c31-64 166-65 159 27C183-49 158 1 86 4 9 8 1-88 30-147zM88-20c53 0 68-48 68-100 0-31-11-51-44-50-52 1-68 46-68 97 0 32 13 53 44 53" id="aU"/><path fill="#333" d="M51-54c-9 22 5 41 31 30L79-1C43 14 10-4 19-52l22-115H19l5-23h22l19-43h21l-9 43h35l-4 23H73" id="aV"/><g id="j"><use transform="matrix(0.05,0,0,0.05,0,0)" xlink:href="#aT"/><use transform="matrix(0.05,0,0,0.05,10,0)" xlink:href="#aU"/><use transform="matrix(0.05,0,0,0.05,20,0)" xlink:href="#aV"/></g><path fill="#333" d="M67 3c-93-2-31-127-26-193h32L48-50c-3 39 53 32 70 12 30-34 30-101 43-152h32L157 0h-30c1-10 6-24 4-33-14 20-29 37-64 36" id="aW"/><path fill="#333" d="M6 0l50-261h32L37 0H6" id="aX"/><g id="k"><use transform="matrix(0.05,0,0,0.05,0,0)" xlink:href="#aT"/><use transform="matrix(0.05,0,0,0.05,10,0)" xlink:href="#aW"/><use transform="matrix(0.05,0,0,0.05,20,0)" xlink:href="#aX"/><use transform="matrix(0.05,0,0,0.05,23.95,0)" xlink:href="#aX"/></g><path fill="#3a414a" d="M30 0v-248h33v221h125V0H30" id="aY"/><g id="l"><use transform="matrix(0.06172839506172839,0,0,0.06172839506172839,0,0)" xlink:href="#aY"/><use transform="matrix(0.06172839506172839,0,0,0.06172839506172839,12.345679012345679,0)" xlink:href="#aI"/><use transform="matrix(0.06172839506172839,0,0,0.06172839506172839,24.691358024691358,0)" xlink:href="#al"/><use transform="matrix(0.06172839506172839,0,0,0.06172839506172839,35.80246913580247,0)" xlink:href="#aG"/><use transform="matrix(0.06172839506172839,0,0,0.06172839506172839,41.97530864197531,0)" xlink:href="#aH"/><use transform="matrix(0.06172839506172839,0,0,0.06172839506172839,57.96296296296296,0)" xlink:href="#aI"/><use transform="matrix(0.06172839506172839,0,0,0.06172839506172839,70.30864197530865,0)" xlink:href="#aJ"/><use transform="matrix(0.06172839506172839,0,0,0.06172839506172839,88.76543209876543,0)" xlink:href="#am"/></g><g id="m"><use transform="matrix(0.05,0,0,0.05,0,0)" xlink:href="#aK"/><use transform="matrix(0.05,0,0,0.05,9,0)" xlink:href="#aL"/><use transform="matrix(0.05,0,0,0.05,19,0)" xlink:href="#aM"/><use transform="matrix(0.05,0,0,0.05,24.95,0)" xlink:href="#aN"/><use transform="matrix(0.05,0,0,0.05,33.95,0)" xlink:href="#aO"/><use transform="matrix(0.05,0,0,0.05,43.95,0)" xlink:href="#aL"/><use transform="matrix(0.05,0,0,0.05,53.95,0)" xlink:href="#aM"/><use transform="matrix(0.05,0,0,0.05,59.900000000000006,0)" xlink:href="#aP"/><use transform="matrix(0.05,0,0,0.05,65.85000000000001,0)" xlink:href="#aQ"/><use transform="matrix(0.05,0,0,0.05,75.85000000000001,0)" xlink:href="#aR"/><use transform="matrix(0.05,0,0,0.05,85.85000000000001,0)" xlink:href="#aS"/></g><g id="n"><use transform="matrix(0.05,0,0,0.05,0,0)" xlink:href="#aT"/><use transform="matrix(0.05,0,0,0.05,10,0)" xlink:href="#aU"/><use transform="matrix(0.05,0,0,0.05,20,0)" xlink:href="#aV"/></g><g id="o"><use transform="matrix(0.05,0,0,0.05,0,0)" xlink:href="#aT"/><use transform="matrix(0.05,0,0,0.05,10,0)" xlink:href="#aW"/><use transform="matrix(0.05,0,0,0.05,20,0)" xlink:href="#aX"/><use transform="matrix(0.05,0,0,0.05,23.95,0)" xlink:href="#aX"/></g><path fill="#3a414a" d="M106-169C34-169 62-67 57 0H25v-261h32l-1 103c12-21 28-36 61-36 89 0 53 116 60 194h-32v-121c2-32-8-49-39-48" id="aZ"/><path fill="#3a414a" d="M100-194c62-1 85 37 85 99 1 63-27 99-86 99S16-35 15-95c0-66 28-99 85-99zM99-20c44 1 53-31 53-75 0-43-8-75-51-75s-53 32-53 75 10 74 51 75" id="ba"/><path fill="#3a414a" d="M117-194c89-4 53 116 60 194h-32v-121c0-31-8-49-39-48C34-167 62-67 57 0H25l-1-190h30c1 10-1 24 2 32 11-22 29-35 61-36" id="bb"/><g id="p"><use transform="matrix(0.06172839506172839,0,0,0.06172839506172839,0,0)" xlink:href="#ao"/><use transform="matrix(0.06172839506172839,0,0,0.06172839506172839,14.814814814814813,0)" xlink:href="#aZ"/><use transform="matrix(0.06172839506172839,0,0,0.06172839506172839,27.160493827160494,0)" xlink:href="#ba"/><use transform="matrix(0.06172839506172839,0,0,0.06172839506172839,39.50617283950617,0)" xlink:href="#bb"/><use transform="matrix(0.06172839506172839,0,0,0.06172839506172839,51.85185185185185,0)" xlink:href="#am"/></g><path fill="#3a414a" d="M205 0l-28-72H64L36 0H1l101-248h38L239 0h-34zm-38-99l-47-123c-12 45-31 82-46 123h93" id="bc"/><path fill="#3a414a" d="M85-194c31 0 48 13 60 33l-1-100h32l1 261h-30c-2-10 0-23-3-31C134-8 116 4 85 4 32 4 16-35 15-94c0-66 23-100 70-100zm9 24c-40 0-46 34-46 75 0 40 6 74 45 74 42 0 51-32 51-76 0-42-9-74-50-73" id="bd"/><g id="q"><use transform="matrix(0.06172839506172839,0,0,0.06172839506172839,0,0)" xlink:href="#bc"/><use transform="matrix(0.06172839506172839,0,0,0.06172839506172839,14.814814814814813,0)" xlink:href="#bd"/><use transform="matrix(0.06172839506172839,0,0,0.06172839506172839,27.160493827160494,0)" xlink:href="#bd"/><use transform="matrix(0.06172839506172839,0,0,0.06172839506172839,39.50617283950617,0)" xlink:href="#an"/><use transform="matrix(0.06172839506172839,0,0,0.06172839506172839,46.85185185185185,0)" xlink:href="#am"/><use transform="matrix(0.06172839506172839,0,0,0.06172839506172839,59.197530864197525,0)" xlink:href="#al"/><use transform="matrix(0.06172839506172839,0,0,0.06172839506172839,70.30864197530863,0)" xlink:href="#al"/></g><path fill="#3a414a" d="M140-251c81 0 123 46 123 126C263-46 219 4 140 4 59 4 17-45 17-125s42-126 123-126zm0 227c63 0 89-41 89-101s-29-99-89-99c-61 0-89 39-89 99S79-25 140-24" id="be"/><path fill="#3a414a" d="M115-194c55 1 70 41 70 98S169 2 115 4C84 4 66-9 55-30l1 105H24l-1-265h31l2 30c10-21 28-34 59-34zm-8 174c40 0 45-34 45-75s-6-73-45-74c-42 0-51 32-51 76 0 43 10 73 51 73" id="bf"/><path fill="#3a414a" d="M177-190C167-65 218 103 67 71c-23-6-38-20-44-43l32-5c15 47 100 32 89-28v-30C133-14 115 1 83 1 29 1 15-40 15-95c0-56 16-97 71-98 29-1 48 16 59 35 1-10 0-23 2-32h30zM94-22c36 0 50-32 50-73 0-42-14-75-50-75-39 0-46 34-46 75s6 73 46 73" id="bg"/><g id="r"><use transform="matrix(0.06172839506172839,0,0,0.06172839506172839,0,0)" xlink:href="#be"/><use transform="matrix(0.06172839506172839,0,0,0.06172839506172839,17.28395061728395,0)" xlink:href="#bf"/><use transform="matrix(0.06172839506172839,0,0,0.06172839506172839,29.629629629629626,0)" xlink:href="#am"/><use transform="matrix(0.06172839506172839,0,0,0.06172839506172839,41.9753086419753,0)" xlink:href="#bb"/><use transform="matrix(0.06172839506172839,0,0,0.06172839506172839,54.32098765432098,0)" xlink:href="#aF"/><use transform="matrix(0.06172839506172839,0,0,0.06172839506172839,59.197530864197525,0)" xlink:href="#bb"/><use transform="matrix(0.06172839506172839,0,0,0.06172839506172839,71.5432098765432,0)" xlink:href="#bg"/><use transform="matrix(0.06172839506172839,0,0,0.06172839506172839,83.88888888888889,0)" xlink:href="#ar"/><use transform="matrix(0.06172839506172839,0,0,0.06172839506172839,99.87654320987654,0)" xlink:href="#aI"/><use transform="matrix(0.06172839506172839,0,0,0.06172839506172839,112.22222222222223,0)" xlink:href="#aG"/><use transform="matrix(0.06172839506172839,0,0,0.06172839506172839,118.39506172839506,0)" xlink:href="#am"/></g><path fill="#333" d="M133-28C103 26-5 8 13-77c13-62 24-115 90-117 29-1 46 15 56 35l19-102h32L160 0h-30zM45-64c-2 27 10 43 35 43 54-1 69-50 69-103 0-29-15-46-42-46-53-1-58 58-62 106" id="bh"/><path fill="#333" d="M111-194c62-3 86 47 72 106H45c-7 38 6 69 45 68 27-1 43-14 53-32l24 11C152-15 129 4 87 4 38 3 12-23 12-71c0-70 32-119 99-123zm44 81c14-66-71-72-95-28-4 8-8 17-11 28h106" id="bi"/><path fill="#333" d="M50-231l6-30h32l-6 30H50zM6 0l37-190h31L37 0H6" id="bj"/><path fill="#333" d="M248-111c6-24 9-61-24-58-72 9-57 108-77 169h-31l26-142c3-37-50-30-64-10C52-115 50-51 37 0H6l36-190h30c-1 10-6 24-4 32 13-43 101-52 105 5 13-22 29-41 61-41 90 0 28 129 23 194h-31" id="bk"/><g id="s"><use transform="matrix(0.05,0,0,0.05,0,0)" xlink:href="#bh"/><use transform="matrix(0.05,0,0,0.05,10,0)" xlink:href="#aL"/><use transform="matrix(0.05,0,0,0.05,20,0)" xlink:href="#aV"/><use transform="matrix(0.05,0,0,0.05,25,0)" xlink:href="#bi"/><use transform="matrix(0.05,0,0,0.05,35,0)" xlink:href="#aV"/><use transform="matrix(0.05,0,0,0.05,40,0)" xlink:href="#bj"/><use transform="matrix(0.05,0,0,0.05,43.95,0)" xlink:href="#bk"/><use transform="matrix(0.05,0,0,0.05,58.900000000000006,0)" xlink:href="#bi"/></g><path fill="#3a414a" d="M30 0v-248h187v28H63v79h144v27H63v87h162V0H30" id="bl"/><path fill="#3a414a" d="M24 0v-261h32V0H24" id="bm"/><g id="t"><use transform="matrix(0.06172839506172839,0,0,0.06172839506172839,0,0)" xlink:href="#bl"/><use transform="matrix(0.06172839506172839,0,0,0.06172839506172839,14.814814814814813,0)" xlink:href="#aJ"/><use transform="matrix(0.06172839506172839,0,0,0.06172839506172839,33.2716049382716,0)" xlink:href="#aI"/><use transform="matrix(0.06172839506172839,0,0,0.06172839506172839,45.61728395061728,0)" xlink:href="#aF"/><use transform="matrix(0.06172839506172839,0,0,0.06172839506172839,50.49382716049382,0)" xlink:href="#bm"/></g><g id="u"><use transform="matrix(0.06172839506172839,0,0,0.06172839506172839,0,0)" xlink:href="#ak"/><use transform="matrix(0.06172839506172839,0,0,0.06172839506172839,15.987654320987653,0)" xlink:href="#al"/><use transform="matrix(0.06172839506172839,0,0,0.06172839506172839,27.098765432098766,0)" xlink:href="#am"/><use transform="matrix(0.06172839506172839,0,0,0.06172839506172839,39.44444444444444,0)" xlink:href="#an"/><use transform="matrix(0.06172839506172839,0,0,0.06172839506172839,46.79012345679012,0)" xlink:href="#aH"/><use transform="matrix(0.06172839506172839,0,0,0.06172839506172839,62.77777777777777,0)" xlink:href="#aI"/><use transform="matrix(0.06172839506172839,0,0,0.06172839506172839,75.12345679012346,0)" xlink:href="#aJ"/><use transform="matrix(0.06172839506172839,0,0,0.06172839506172839,93.58024691358024,0)" xlink:href="#am"/></g><path fill="#3a414a" d="M206 0h-36l-40-164L89 0H53L-1-190h32L70-26l43-164h34l41 164 42-164h31" id="bn"/><g id="v"><use transform="matrix(0.06172839506172839,0,0,0.06172839506172839,0,0)" xlink:href="#ao"/><use transform="matrix(0.06172839506172839,0,0,0.06172839506172839,14.814814814814813,0)" xlink:href="#aI"/><use transform="matrix(0.06172839506172839,0,0,0.06172839506172839,27.160493827160494,0)" xlink:href="#al"/><use transform="matrix(0.06172839506172839,0,0,0.06172839506172839,38.27160493827161,0)" xlink:href="#al"/><use transform="matrix(0.06172839506172839,0,0,0.06172839506172839,49.38271604938272,0)" xlink:href="#bn"/><use transform="matrix(0.06172839506172839,0,0,0.06172839506172839,65.37037037037038,0)" xlink:href="#ba"/><use transform="matrix(0.06172839506172839,0,0,0.06172839506172839,77.71604938271606,0)" xlink:href="#an"/><use transform="matrix(0.06172839506172839,0,0,0.06172839506172839,85.06172839506175,0)" xlink:href="#bd"/></g><path fill="#3a414a" d="M96-169c-40 0-48 33-48 73s9 75 48 75c24 0 41-14 43-38l32 2c-6 37-31 61-74 61-59 0-76-41-82-99-10-93 101-131 147-64 4 7 5 14 7 22l-32 3c-4-21-16-35-41-35" id="bo"/><path fill="#3a414a" d="M84 4C-5 8 30-112 23-190h32v120c0 31 7 50 39 49 72-2 45-101 50-169h31l1 190h-30c-1-10 1-25-2-33-11 22-28 36-60 37" id="bp"/><g id="w"><use transform="matrix(0.06172839506172839,0,0,0.06172839506172839,0,0)" xlink:href="#bc"/><use transform="matrix(0.06172839506172839,0,0,0.06172839506172839,14.814814814814813,0)" xlink:href="#bo"/><use transform="matrix(0.06172839506172839,0,0,0.06172839506172839,25.925925925925924,0)" xlink:href="#bo"/><use transform="matrix(0.06172839506172839,0,0,0.06172839506172839,37.03703703703704,0)" xlink:href="#ba"/><use transform="matrix(0.06172839506172839,0,0,0.06172839506172839,49.382716049382715,0)" xlink:href="#bp"/><use transform="matrix(0.06172839506172839,0,0,0.06172839506172839,61.72839506172839,0)" xlink:href="#bb"/><use transform="matrix(0.06172839506172839,0,0,0.06172839506172839,74.07407407407408,0)" xlink:href="#aG"/><use transform="matrix(0.06172839506172839,0,0,0.06172839506172839,80.24691358024691,0)" xlink:href="#al"/></g><g id="x"><use transform="matrix(0.06172839506172839,0,0,0.06172839506172839,0,0)" xlink:href="#ao"/><use transform="matrix(0.06172839506172839,0,0,0.06172839506172839,14.814814814814813,0)" xlink:href="#ap"/></g><g id="y"><use transform="matrix(0.06172839506172839,0,0,0.06172839506172839,0,0)" xlink:href="#bc"/><use transform="matrix(0.06172839506172839,0,0,0.06172839506172839,14.814814814814813,0)" xlink:href="#bo"/><use transform="matrix(0.06172839506172839,0,0,0.06172839506172839,25.925925925925924,0)" xlink:href="#bo"/><use transform="matrix(0.06172839506172839,0,0,0.06172839506172839,37.03703703703704,0)" xlink:href="#ba"/><use transform="matrix(0.06172839506172839,0,0,0.06172839506172839,49.382716049382715,0)" xlink:href="#bp"/><use transform="matrix(0.06172839506172839,0,0,0.06172839506172839,61.72839506172839,0)" xlink:href="#bb"/><use transform="matrix(0.06172839506172839,0,0,0.06172839506172839,74.07407407407408,0)" xlink:href="#aG"/><use transform="matrix(0.06172839506172839,0,0,0.06172839506172839,80.24691358024691,0)" xlink:href="#aq"/><use transform="matrix(0.06172839506172839,0,0,0.06172839506172839,86.41975308641975,0)" xlink:href="#ar"/></g><g id="z"><use transform="matrix(0.05,0,0,0.05,0,0)" xlink:href="#as"/><use transform="matrix(0.05,0,0,0.05,5,0)" xlink:href="#at"/><use transform="matrix(0.05,0,0,0.05,17.950000000000003,0)" xlink:href="#au"/></g><g id="A"><use transform="matrix(0.05,0,0,0.05,0,0)" xlink:href="#at"/><use transform="matrix(0.05,0,0,0.05,12.950000000000001,0)" xlink:href="#av"/><use transform="matrix(0.05,0,0,0.05,26.950000000000003,0)" xlink:href="#au"/></g><g id="B"><use transform="matrix(0.05,0,0,0.05,0,0)" xlink:href="#at"/><use transform="matrix(0.05,0,0,0.05,12.950000000000001,0)" xlink:href="#aw"/><use transform="matrix(0.05,0,0,0.05,25.900000000000002,0)" xlink:href="#ax"/><use transform="matrix(0.05,0,0,0.05,35.900000000000006,0)" xlink:href="#ax"/></g><g id="C"><use transform="matrix(0.05,0,0,0.05,0,0)" xlink:href="#ay"/><use transform="matrix(0.05,0,0,0.05,12,0)" xlink:href="#aw"/><use transform="matrix(0.05,0,0,0.05,24.950000000000003,0)" xlink:href="#au"/><use transform="matrix(0.05,0,0,0.05,35.550000000000004,0)" xlink:href="#av"/><use transform="matrix(0.05,0,0,0.05,49.550000000000004,0)" xlink:href="#az"/><use transform="matrix(0.05,0,0,0.05,59.550000000000004,0)" xlink:href="#as"/><use transform="matrix(0.05,0,0,0.05,64.55000000000001,0)" xlink:href="#at"/><use transform="matrix(0.05,0,0,0.05,77.50000000000001,0)" xlink:href="#aA"/><use transform="matrix(0.05,0,0,0.05,90.45000000000002,0)" xlink:href="#aB"/><use transform="matrix(0.05,0,0,0.05,103.40000000000003,0)" xlink:href="#aC"/><use transform="matrix(0.05,0,0,0.05,115.40000000000003,0)" xlink:href="#aD"/><use transform="matrix(0.05,0,0,0.05,130.35000000000002,0)" xlink:href="#aC"/><use transform="matrix(0.05,0,0,0.05,142.35000000000002,0)" xlink:href="#at"/><use transform="matrix(0.05,0,0,0.05,155.3,0)" xlink:href="#au"/></g><g id="D"><use transform="matrix(0.06172839506172839,0,0,0.06172839506172839,0,0)" xlink:href="#aE"/><use transform="matrix(0.06172839506172839,0,0,0.06172839506172839,13.518518518518517,0)" xlink:href="#ap"/></g><g id="E"><use transform="matrix(0.06172839506172839,0,0,0.06172839506172839,0,0)" xlink:href="#ak"/><use transform="matrix(0.06172839506172839,0,0,0.06172839506172839,15.987654320987653,0)" xlink:href="#al"/><use transform="matrix(0.06172839506172839,0,0,0.06172839506172839,27.098765432098766,0)" xlink:href="#am"/><use transform="matrix(0.06172839506172839,0,0,0.06172839506172839,39.44444444444444,0)" xlink:href="#an"/><use transform="matrix(0.06172839506172839,0,0,0.06172839506172839,46.79012345679012,0)" xlink:href="#aq"/><use transform="matrix(0.06172839506172839,0,0,0.06172839506172839,52.96296296296296,0)" xlink:href="#ar"/></g><g id="F"><use transform="matrix(0.05,0,0,0.05,0,0)" xlink:href="#as"/><use transform="matrix(0.05,0,0,0.05,5,0)" xlink:href="#at"/><use transform="matrix(0.05,0,0,0.05,17.950000000000003,0)" xlink:href="#au"/></g><path fill="#3a414a" d="M115-194c53 0 69 39 70 98 0 66-23 100-70 100C84 3 66-7 56-30L54 0H23l1-261h32v101c10-23 28-34 59-34zm-8 174c40 0 45-34 45-75 0-40-5-75-45-74-42 0-51 32-51 76 0 43 10 73 51 73" id="bq"/><g id="G"><use transform="matrix(0.06172839506172839,0,0,0.06172839506172839,0,0)" xlink:href="#bc"/><use transform="matrix(0.06172839506172839,0,0,0.06172839506172839,14.814814814814813,0)" xlink:href="#bo"/><use transform="matrix(0.06172839506172839,0,0,0.06172839506172839,25.925925925925924,0)" xlink:href="#bo"/><use transform="matrix(0.06172839506172839,0,0,0.06172839506172839,37.03703703703704,0)" xlink:href="#ba"/><use transform="matrix(0.06172839506172839,0,0,0.06172839506172839,49.382716049382715,0)" xlink:href="#bp"/><use transform="matrix(0.06172839506172839,0,0,0.06172839506172839,61.72839506172839,0)" xlink:href="#bb"/><use transform="matrix(0.06172839506172839,0,0,0.06172839506172839,74.07407407407408,0)" xlink:href="#aG"/><use transform="matrix(0.06172839506172839,0,0,0.06172839506172839,80.24691358024691,0)" xlink:href="#aH"/><use transform="matrix(0.06172839506172839,0,0,0.06172839506172839,96.23456790123457,0)" xlink:href="#bp"/><use transform="matrix(0.06172839506172839,0,0,0.06172839506172839,108.58024691358025,0)" xlink:href="#aJ"/><use transform="matrix(0.06172839506172839,0,0,0.06172839506172839,127.03703703703702,0)" xlink:href="#bq"/><use transform="matrix(0.06172839506172839,0,0,0.06172839506172839,139.3827160493827,0)" xlink:href="#am"/><use transform="matrix(0.06172839506172839,0,0,0.06172839506172839,151.72839506172838,0)" xlink:href="#an"/></g><g id="H"><use transform="matrix(0.05,0,0,0.05,0,0)" xlink:href="#as"/><use transform="matrix(0.05,0,0,0.05,5,0)" xlink:href="#at"/><use transform="matrix(0.05,0,0,0.05,17.950000000000003,0)" xlink:href="#au"/></g><g id="I"><use transform="matrix(0.05,0,0,0.05,0,0)" xlink:href="#at"/><use transform="matrix(0.05,0,0,0.05,12.950000000000001,0)" xlink:href="#aw"/><use transform="matrix(0.05,0,0,0.05,25.900000000000002,0)" xlink:href="#ax"/><use transform="matrix(0.05,0,0,0.05,35.900000000000006,0)" xlink:href="#ax"/></g><g id="J"><use transform="matrix(0.06172839506172839,0,0,0.06172839506172839,0,0)" xlink:href="#aH"/><use transform="matrix(0.06172839506172839,0,0,0.06172839506172839,15.987654320987653,0)" xlink:href="#aI"/><use transform="matrix(0.06172839506172839,0,0,0.06172839506172839,28.333333333333332,0)" xlink:href="#aJ"/><use transform="matrix(0.06172839506172839,0,0,0.06172839506172839,46.79012345679012,0)" xlink:href="#am"/></g><g id="K"><use transform="matrix(0.05,0,0,0.05,0,0)" xlink:href="#aK"/><use transform="matrix(0.05,0,0,0.05,9,0)" xlink:href="#aL"/><use transform="matrix(0.05,0,0,0.05,19,0)" xlink:href="#aM"/><use transform="matrix(0.05,0,0,0.05,24.95,0)" xlink:href="#aN"/><use transform="matrix(0.05,0,0,0.05,33.95,0)" xlink:href="#aO"/><use transform="matrix(0.05,0,0,0.05,43.95,0)" xlink:href="#aL"/><use transform="matrix(0.05,0,0,0.05,53.95,0)" xlink:href="#aM"/><use transform="matrix(0.05,0,0,0.05,59.900000000000006,0)" xlink:href="#aP"/><use transform="matrix(0.05,0,0,0.05,65.85000000000001,0)" xlink:href="#aQ"/><use transform="matrix(0.05,0,0,0.05,75.85000000000001,0)" xlink:href="#aR"/><use transform="matrix(0.05,0,0,0.05,85.85000000000001,0)" xlink:href="#aS"/></g><path fill="#3a414a" d="M127-220V0H93v-220H8v-28h204v28h-85" id="br"/><path fill="#3a414a" d="M179-190L93 31C79 59 56 82 12 73V49c39 6 53-20 64-50L1-190h34L92-34l54-156h33" id="bs"/><g id="L"><use transform="matrix(0.06172839506172839,0,0,0.06172839506172839,0,0)" xlink:href="#bc"/><use transform="matrix(0.06172839506172839,0,0,0.06172839506172839,14.814814814814813,0)" xlink:href="#bo"/><use transform="matrix(0.06172839506172839,0,0,0.06172839506172839,25.925925925925924,0)" xlink:href="#bo"/><use transform="matrix(0.06172839506172839,0,0,0.06172839506172839,37.03703703703704,0)" xlink:href="#ba"/><use transform="matrix(0.06172839506172839,0,0,0.06172839506172839,49.382716049382715,0)" xlink:href="#bp"/><use transform="matrix(0.06172839506172839,0,0,0.06172839506172839,61.72839506172839,0)" xlink:href="#bb"/><use transform="matrix(0.06172839506172839,0,0,0.06172839506172839,74.07407407407408,0)" xlink:href="#aG"/><use transform="matrix(0.06172839506172839,0,0,0.06172839506172839,80.24691358024691,0)" xlink:href="#br"/><use transform="matrix(0.06172839506172839,0,0,0.06172839506172839,92.53086419753086,0)" xlink:href="#bs"/><use transform="matrix(0.06172839506172839,0,0,0.06172839506172839,103.64197530864197,0)" xlink:href="#bf"/><use transform="matrix(0.06172839506172839,0,0,0.06172839506172839,115.98765432098766,0)" xlink:href="#am"/></g><path fill="#333" d="M119 0H84L31-248h34l41 218 126-218h36" id="bt"/><path fill="#333" d="M179 0l23-115H67L45 0H11l48-248h34L72-143h135l21-105h32L212 0h-33" id="bu"/><path fill="#333" d="M9 0l6-27h63l36-188-63 39 6-31 66-41h29L110-27h60l-5 27H9" id="bv"/><g id="M"><use transform="matrix(0.05,0,0,0.05,0,0)" xlink:href="#bt"/><use transform="matrix(0.05,0,0,0.05,11,0)" xlink:href="#ay"/><use transform="matrix(0.05,0,0,0.05,23,0)" xlink:href="#aB"/><use transform="matrix(0.05,0,0,0.05,35.95,0)" xlink:href="#aA"/><use transform="matrix(0.05,0,0,0.05,48.900000000000006,0)" xlink:href="#bu"/><use transform="matrix(0.05,0,0,0.05,61.85,0)" xlink:href="#ay"/><use transform="matrix(0.05,0,0,0.05,73.85000000000001,0)" xlink:href="#aB"/><use transform="matrix(0.05,0,0,0.05,86.80000000000001,0)" xlink:href="#aP"/><use transform="matrix(0.05,0,0,0.05,92.75000000000001,0)" xlink:href="#bv"/><use transform="matrix(0.05,0,0,0.05,102.75,0)" xlink:href="#aR"/><use transform="matrix(0.05,0,0,0.05,112.75,0)" xlink:href="#aS"/></g><path fill="#3a414a" d="M185-189c-5-48-123-54-124 2 14 75 158 14 163 119 3 78-121 87-175 55-17-10-28-26-33-46l33-7c5 56 141 63 141-1 0-78-155-14-162-118-5-82 145-84 179-34 5 7 8 16 11 25" id="bw"/><g id="N"><use transform="matrix(0.06172839506172839,0,0,0.06172839506172839,0,0)" xlink:href="#bw"/><use transform="matrix(0.06172839506172839,0,0,0.06172839506172839,14.814814814814813,0)" xlink:href="#aG"/><use transform="matrix(0.06172839506172839,0,0,0.06172839506172839,20.98765432098765,0)" xlink:href="#aI"/><use transform="matrix(0.06172839506172839,0,0,0.06172839506172839,33.33333333333333,0)" xlink:href="#aG"/><use transform="matrix(0.06172839506172839,0,0,0.06172839506172839,39.50617283950617,0)" xlink:href="#bp"/><use transform="matrix(0.06172839506172839,0,0,0.06172839506172839,51.85185185185185,0)" xlink:href="#al"/></g><g id="O"><use transform="matrix(0.05,0,0,0.05,0,0)" xlink:href="#bt"/><use transform="matrix(0.05,0,0,0.05,11,0)" xlink:href="#ay"/><use transform="matrix(0.05,0,0,0.05,23,0)" xlink:href="#aB"/><use transform="matrix(0.05,0,0,0.05,35.95,0)" xlink:href="#aA"/><use transform="matrix(0.05,0,0,0.05,48.900000000000006,0)" xlink:href="#bu"/><use transform="matrix(0.05,0,0,0.05,61.85,0)" xlink:href="#ay"/><use transform="matrix(0.05,0,0,0.05,73.85000000000001,0)" xlink:href="#aB"/><use transform="matrix(0.05,0,0,0.05,86.80000000000001,0)" xlink:href="#aP"/><use transform="matrix(0.05,0,0,0.05,92.75000000000001,0)" xlink:href="#bv"/><use transform="matrix(0.05,0,0,0.05,102.75,0)" xlink:href="#aR"/><use transform="matrix(0.05,0,0,0.05,112.75,0)" xlink:href="#aS"/></g><path fill="#3a414a" d="M160-131c35 5 61 23 61 61C221 17 115-2 30 0v-248c76 3 177-17 177 60 0 33-19 50-47 57zm-97-11c50-1 110 9 110-42 0-47-63-36-110-37v79zm0 115c55-2 124 14 124-45 0-56-70-42-124-44v89" id="bx"/><g id="P"><use transform="matrix(0.06172839506172839,0,0,0.06172839506172839,0,0)" xlink:href="#bx"/><use transform="matrix(0.06172839506172839,0,0,0.06172839506172839,14.814814814814813,0)" xlink:href="#aI"/><use transform="matrix(0.06172839506172839,0,0,0.06172839506172839,27.160493827160494,0)" xlink:href="#bm"/><use transform="matrix(0.06172839506172839,0,0,0.06172839506172839,32.03703703703704,0)" xlink:href="#aI"/><use transform="matrix(0.06172839506172839,0,0,0.06172839506172839,44.382716049382715,0)" xlink:href="#bb"/><use transform="matrix(0.06172839506172839,0,0,0.06172839506172839,56.72839506172839,0)" xlink:href="#bo"/><use transform="matrix(0.06172839506172839,0,0,0.06172839506172839,67.8395061728395,0)" xlink:href="#am"/></g><g id="Q"><use transform="matrix(0.05,0,0,0.05,0,0)" xlink:href="#bh"/><use transform="matrix(0.05,0,0,0.05,10,0)" xlink:href="#bi"/><use transform="matrix(0.05,0,0,0.05,20,0)" xlink:href="#aN"/><use transform="matrix(0.05,0,0,0.05,29,0)" xlink:href="#bj"/><use transform="matrix(0.05,0,0,0.05,32.95,0)" xlink:href="#bk"/><use transform="matrix(0.05,0,0,0.05,47.900000000000006,0)" xlink:href="#aL"/><use transform="matrix(0.05,0,0,0.05,57.900000000000006,0)" xlink:href="#aX"/></g><g id="R"><use transform="matrix(0.06172839506172839,0,0,0.06172839506172839,0,0)" xlink:href="#ba"/><use transform="matrix(0.06172839506172839,0,0,0.06172839506172839,12.345679012345679,0)" xlink:href="#bf"/><use transform="matrix(0.06172839506172839,0,0,0.06172839506172839,24.691358024691358,0)" xlink:href="#am"/><use transform="matrix(0.06172839506172839,0,0,0.06172839506172839,37.03703703703704,0)" xlink:href="#bb"/><use transform="matrix(0.06172839506172839,0,0,0.06172839506172839,49.382716049382715,0)" xlink:href="#bd"/><use transform="matrix(0.06172839506172839,0,0,0.06172839506172839,61.72839506172839,0)" xlink:href="#aI"/><use transform="matrix(0.06172839506172839,0,0,0.06172839506172839,74.07407407407408,0)" xlink:href="#aG"/><use transform="matrix(0.06172839506172839,0,0,0.06172839506172839,80.24691358024691,0)" xlink:href="#am"/></g><g id="S"><use transform="matrix(0.06172839506172839,0,0,0.06172839506172839,0,0)" xlink:href="#br"/><use transform="matrix(0.06172839506172839,0,0,0.06172839506172839,12.716049382716047,0)" xlink:href="#an"/><use transform="matrix(0.06172839506172839,0,0,0.06172839506172839,20.061728395061728,0)" xlink:href="#aI"/><use transform="matrix(0.06172839506172839,0,0,0.06172839506172839,32.407407407407405,0)" xlink:href="#bb"/><use transform="matrix(0.06172839506172839,0,0,0.06172839506172839,44.75308641975308,0)" xlink:href="#al"/><use transform="matrix(0.06172839506172839,0,0,0.06172839506172839,55.86419753086419,0)" xlink:href="#aI"/><use transform="matrix(0.06172839506172839,0,0,0.06172839506172839,68.20987654320987,0)" xlink:href="#bo"/><use transform="matrix(0.06172839506172839,0,0,0.06172839506172839,79.32098765432099,0)" xlink:href="#aG"/><use transform="matrix(0.06172839506172839,0,0,0.06172839506172839,85.49382716049382,0)" xlink:href="#aF"/><use transform="matrix(0.06172839506172839,0,0,0.06172839506172839,90.37037037037037,0)" xlink:href="#ba"/><use transform="matrix(0.06172839506172839,0,0,0.06172839506172839,102.71604938271605,0)" xlink:href="#bb"/><use transform="matrix(0.06172839506172839,0,0,0.06172839506172839,115.06172839506173,0)" xlink:href="#al"/></g><g id="T"><use transform="matrix(0.06172839506172839,0,0,0.06172839506172839,0,0)" xlink:href="#br"/><use transform="matrix(0.06172839506172839,0,0,0.06172839506172839,12.716049382716047,0)" xlink:href="#an"/><use transform="matrix(0.06172839506172839,0,0,0.06172839506172839,20.061728395061728,0)" xlink:href="#aI"/><use transform="matrix(0.06172839506172839,0,0,0.06172839506172839,32.407407407407405,0)" xlink:href="#bb"/><use transform="matrix(0.06172839506172839,0,0,0.06172839506172839,44.75308641975308,0)" xlink:href="#al"/><use transform="matrix(0.06172839506172839,0,0,0.06172839506172839,55.86419753086419,0)" xlink:href="#aI"/><use transform="matrix(0.06172839506172839,0,0,0.06172839506172839,68.20987654320987,0)" xlink:href="#bo"/><use transform="matrix(0.06172839506172839,0,0,0.06172839506172839,79.32098765432099,0)" xlink:href="#aG"/><use transform="matrix(0.06172839506172839,0,0,0.06172839506172839,85.49382716049382,0)" xlink:href="#aF"/><use transform="matrix(0.06172839506172839,0,0,0.06172839506172839,90.37037037037037,0)" xlink:href="#ba"/><use transform="matrix(0.06172839506172839,0,0,0.06172839506172839,102.71604938271605,0)" xlink:href="#bb"/><use transform="matrix(0.06172839506172839,0,0,0.06172839506172839,115.06172839506173,0)" xlink:href="#aq"/><use transform="matrix(0.06172839506172839,0,0,0.06172839506172839,121.23456790123457,0)" xlink:href="#ar"/></g><g id="U"><use transform="matrix(0.06172839506172839,0,0,0.06172839506172839,0,0)" xlink:href="#aE"/><use transform="matrix(0.06172839506172839,0,0,0.06172839506172839,13.518518518518517,0)" xlink:href="#an"/><use transform="matrix(0.06172839506172839,0,0,0.06172839506172839,20.864197530864196,0)" xlink:href="#ba"/><use transform="matrix(0.06172839506172839,0,0,0.06172839506172839,33.20987654320987,0)" xlink:href="#aJ"/><use transform="matrix(0.06172839506172839,0,0,0.06172839506172839,51.66666666666666,0)" xlink:href="#bc"/><use transform="matrix(0.06172839506172839,0,0,0.06172839506172839,66.48148148148147,0)" xlink:href="#bo"/><use transform="matrix(0.06172839506172839,0,0,0.06172839506172839,77.59259259259258,0)" xlink:href="#bo"/><use transform="matrix(0.06172839506172839,0,0,0.06172839506172839,88.7037037037037,0)" xlink:href="#ba"/><use transform="matrix(0.06172839506172839,0,0,0.06172839506172839,101.04938271604938,0)" xlink:href="#bp"/><use transform="matrix(0.06172839506172839,0,0,0.06172839506172839,113.39506172839506,0)" xlink:href="#bb"/><use transform="matrix(0.06172839506172839,0,0,0.06172839506172839,125.74074074074075,0)" xlink:href="#aG"/><use transform="matrix(0.06172839506172839,0,0,0.06172839506172839,131.9135802469136,0)" xlink:href="#aq"/><use transform="matrix(0.06172839506172839,0,0,0.06172839506172839,138.08641975308643,0)" xlink:href="#ar"/></g><g id="V"><use transform="matrix(0.049382716049382706,0,0,0.049382716049382706,0,0)" xlink:href="#aq"/><use transform="matrix(0.049382716049382706,0,0,0.049382716049382706,4.93827160493827,0)" xlink:href="#aH"/><use transform="matrix(0.049382716049382706,0,0,0.049382716049382706,17.728395061728392,0)" xlink:href="#br"/></g><g id="W"><use transform="matrix(0.049382716049382706,0,0,0.049382716049382706,0,0)" xlink:href="#aH"/><use transform="matrix(0.049382716049382706,0,0,0.049382716049382706,12.790123456790122,0)" xlink:href="#be"/><use transform="matrix(0.049382716049382706,0,0,0.049382716049382706,26.617283950617278,0)" xlink:href="#br"/></g><g id="X"><use transform="matrix(0.049382716049382706,0,0,0.049382716049382706,0,0)" xlink:href="#aH"/><use transform="matrix(0.049382716049382706,0,0,0.049382716049382706,12.790123456790122,0)" xlink:href="#ak"/><use transform="matrix(0.049382716049382706,0,0,0.049382716049382706,25.580246913580243,0)" xlink:href="#aY"/><use transform="matrix(0.049382716049382706,0,0,0.049382716049382706,35.456790123456784,0)" xlink:href="#aY"/></g><g id="Y"><use transform="matrix(0.06172839506172839,0,0,0.06172839506172839,0,0)" xlink:href="#br"/><use transform="matrix(0.06172839506172839,0,0,0.06172839506172839,11.049382716049381,0)" xlink:href="#ba"/><use transform="matrix(0.06172839506172839,0,0,0.06172839506172839,23.39506172839506,0)" xlink:href="#bc"/><use transform="matrix(0.06172839506172839,0,0,0.06172839506172839,38.20987654320987,0)" xlink:href="#bo"/><use transform="matrix(0.06172839506172839,0,0,0.06172839506172839,49.32098765432099,0)" xlink:href="#bo"/><use transform="matrix(0.06172839506172839,0,0,0.06172839506172839,60.4320987654321,0)" xlink:href="#ba"/><use transform="matrix(0.06172839506172839,0,0,0.06172839506172839,72.77777777777779,0)" xlink:href="#bp"/><use transform="matrix(0.06172839506172839,0,0,0.06172839506172839,85.12345679012347,0)" xlink:href="#bb"/><use transform="matrix(0.06172839506172839,0,0,0.06172839506172839,97.46913580246915,0)" xlink:href="#aG"/><use transform="matrix(0.06172839506172839,0,0,0.06172839506172839,103.64197530864199,0)" xlink:href="#aq"/><use transform="matrix(0.06172839506172839,0,0,0.06172839506172839,109.81481481481482,0)" xlink:href="#ar"/></g><g id="Z"><use transform="matrix(0.06172839506172839,0,0,0.06172839506172839,0,0)" xlink:href="#br"/><use transform="matrix(0.06172839506172839,0,0,0.06172839506172839,12.28395061728395,0)" xlink:href="#bs"/><use transform="matrix(0.06172839506172839,0,0,0.06172839506172839,23.39506172839506,0)" xlink:href="#bf"/><use transform="matrix(0.06172839506172839,0,0,0.06172839506172839,35.74074074074074,0)" xlink:href="#am"/></g><path fill="#3a414a" d="M108 0H70L1-190h34L89-25l56-165h34" id="by"/><path fill="#3a414a" d="M87 75C49 33 22-17 22-94c0-76 28-126 65-167h31c-38 41-64 92-64 168S80 34 118 75H87" id="bz"/><path fill="#3a414a" d="M27 0v-27h64v-190l-56 39v-29l58-41h29v221h61V0H27" id="bA"/><path fill="#3a414a" d="M101-251c68 0 85 55 85 127S166 4 100 4C33 4 14-52 14-124c0-73 17-127 87-127zm-1 229c47 0 54-49 54-102s-4-102-53-102c-51 0-55 48-55 102 0 53 5 102 54 102" id="bB"/><path fill="#3a414a" d="M33-261c38 41 65 92 65 168S71 34 33 75H2C39 34 66-17 66-93S39-220 2-261h31" id="bC"/><g id="aa"><use transform="matrix(0.06172839506172839,0,0,0.06172839506172839,0,0)" xlink:href="#by"/><use transform="matrix(0.06172839506172839,0,0,0.06172839506172839,11.11111111111111,0)" xlink:href="#aI"/><use transform="matrix(0.06172839506172839,0,0,0.06172839506172839,23.45679012345679,0)" xlink:href="#an"/><use transform="matrix(0.06172839506172839,0,0,0.06172839506172839,30.80246913580247,0)" xlink:href="#bo"/><use transform="matrix(0.06172839506172839,0,0,0.06172839506172839,41.91358024691358,0)" xlink:href="#aZ"/><use transform="matrix(0.06172839506172839,0,0,0.06172839506172839,54.25925925925926,0)" xlink:href="#aI"/><use transform="matrix(0.06172839506172839,0,0,0.06172839506172839,66.60493827160494,0)" xlink:href="#an"/><use transform="matrix(0.06172839506172839,0,0,0.06172839506172839,73.95061728395062,0)" xlink:href="#bz"/><use transform="matrix(0.06172839506172839,0,0,0.06172839506172839,81.2962962962963,0)" xlink:href="#bA"/><use transform="matrix(0.06172839506172839,0,0,0.06172839506172839,93.64197530864199,0)" xlink:href="#bB"/><use transform="matrix(0.06172839506172839,0,0,0.06172839506172839,105.98765432098767,0)" xlink:href="#bC"/></g><g id="ab"><use transform="matrix(0.06172839506172839,0,0,0.06172839506172839,0,0)" xlink:href="#bb"/><use transform="matrix(0.06172839506172839,0,0,0.06172839506172839,12.345679012345679,0)" xlink:href="#ba"/><use transform="matrix(0.06172839506172839,0,0,0.06172839506172839,24.691358024691358,0)" xlink:href="#aG"/></g><g id="ac"><use transform="matrix(0.06172839506172839,0,0,0.06172839506172839,0,0)" xlink:href="#bb"/><use transform="matrix(0.06172839506172839,0,0,0.06172839506172839,12.345679012345679,0)" xlink:href="#bp"/><use transform="matrix(0.06172839506172839,0,0,0.06172839506172839,24.691358024691358,0)" xlink:href="#bm"/><use transform="matrix(0.06172839506172839,0,0,0.06172839506172839,29.5679012345679,0)" xlink:href="#bm"/></g><g id="ad"><use transform="matrix(0.06172839506172839,0,0,0.06172839506172839,0,0)" xlink:href="#bc"/><use transform="matrix(0.06172839506172839,0,0,0.06172839506172839,14.814814814814813,0)" xlink:href="#aJ"/><use transform="matrix(0.06172839506172839,0,0,0.06172839506172839,33.2716049382716,0)" xlink:href="#ba"/><use transform="matrix(0.06172839506172839,0,0,0.06172839506172839,45.61728395061728,0)" xlink:href="#bp"/><use transform="matrix(0.06172839506172839,0,0,0.06172839506172839,57.962962962962955,0)" xlink:href="#bb"/><use transform="matrix(0.06172839506172839,0,0,0.06172839506172839,70.30864197530863,0)" xlink:href="#aG"/></g><g id="ae"><use transform="matrix(0.06172839506172839,0,0,0.06172839506172839,0,0)" xlink:href="#ar"/><use transform="matrix(0.06172839506172839,0,0,0.06172839506172839,15.987654320987653,0)" xlink:href="#am"/><use transform="matrix(0.06172839506172839,0,0,0.06172839506172839,28.333333333333332,0)" xlink:href="#bo"/><use transform="matrix(0.06172839506172839,0,0,0.06172839506172839,39.44444444444444,0)" xlink:href="#aF"/><use transform="matrix(0.06172839506172839,0,0,0.06172839506172839,44.32098765432099,0)" xlink:href="#aJ"/><use transform="matrix(0.06172839506172839,0,0,0.06172839506172839,62.77777777777777,0)" xlink:href="#aI"/><use transform="matrix(0.06172839506172839,0,0,0.06172839506172839,75.12345679012346,0)" xlink:href="#bm"/></g><g id="af"><use transform="matrix(0.06172839506172839,0,0,0.06172839506172839,0,0)" xlink:href="#br"/><use transform="matrix(0.06172839506172839,0,0,0.06172839506172839,12.716049382716047,0)" xlink:href="#an"/><use transform="matrix(0.06172839506172839,0,0,0.06172839506172839,20.061728395061728,0)" xlink:href="#aI"/><use transform="matrix(0.06172839506172839,0,0,0.06172839506172839,32.407407407407405,0)" xlink:href="#bb"/><use transform="matrix(0.06172839506172839,0,0,0.06172839506172839,44.75308641975308,0)" xlink:href="#al"/><use transform="matrix(0.06172839506172839,0,0,0.06172839506172839,55.86419753086419,0)" xlink:href="#aI"/><use transform="matrix(0.06172839506172839,0,0,0.06172839506172839,68.20987654320987,0)" xlink:href="#bo"/><use transform="matrix(0.06172839506172839,0,0,0.06172839506172839,79.32098765432099,0)" xlink:href="#aG"/><use transform="matrix(0.06172839506172839,0,0,0.06172839506172839,85.49382716049382,0)" xlink:href="#aF"/><use transform="matrix(0.06172839506172839,0,0,0.06172839506172839,90.37037037037037,0)" xlink:href="#ba"/><use transform="matrix(0.06172839506172839,0,0,0.06172839506172839,102.71604938271605,0)" xlink:href="#bb"/><use transform="matrix(0.06172839506172839,0,0,0.06172839506172839,115.06172839506173,0)" xlink:href="#ar"/><use transform="matrix(0.06172839506172839,0,0,0.06172839506172839,131.0493827160494,0)" xlink:href="#aI"/><use transform="matrix(0.06172839506172839,0,0,0.06172839506172839,143.39506172839506,0)" xlink:href="#aG"/><use transform="matrix(0.06172839506172839,0,0,0.06172839506172839,149.5679012345679,0)" xlink:href="#am"/></g><g id="ag"><use transform="matrix(0.06172839506172839,0,0,0.06172839506172839,0,0)" xlink:href="#bd"/><use transform="matrix(0.06172839506172839,0,0,0.06172839506172839,12.345679012345679,0)" xlink:href="#aI"/><use transform="matrix(0.06172839506172839,0,0,0.06172839506172839,24.691358024691358,0)" xlink:href="#aG"/><use transform="matrix(0.06172839506172839,0,0,0.06172839506172839,30.864197530864196,0)" xlink:href="#am"/><use transform="matrix(0.06172839506172839,0,0,0.06172839506172839,43.20987654320987,0)" xlink:href="#aG"/><use transform="matrix(0.06172839506172839,0,0,0.06172839506172839,49.382716049382715,0)" xlink:href="#aF"/><use transform="matrix(0.06172839506172839,0,0,0.06172839506172839,54.25925925925926,0)" xlink:href="#aJ"/><use transform="matrix(0.06172839506172839,0,0,0.06172839506172839,72.71604938271605,0)" xlink:href="#am"/></g><g id="ah"><use transform="matrix(0.06172839506172839,0,0,0.06172839506172839,0,0)" xlink:href="#ar"/><use transform="matrix(0.06172839506172839,0,0,0.06172839506172839,15.987654320987653,0)" xlink:href="#am"/><use transform="matrix(0.06172839506172839,0,0,0.06172839506172839,28.333333333333332,0)" xlink:href="#al"/><use transform="matrix(0.06172839506172839,0,0,0.06172839506172839,39.44444444444444,0)" xlink:href="#bo"/><use transform="matrix(0.06172839506172839,0,0,0.06172839506172839,50.55555555555556,0)" xlink:href="#an"/><use transform="matrix(0.06172839506172839,0,0,0.06172839506172839,57.901234567901234,0)" xlink:href="#aF"/><use transform="matrix(0.06172839506172839,0,0,0.06172839506172839,62.77777777777778,0)" xlink:href="#bf"/><use transform="matrix(0.06172839506172839,0,0,0.06172839506172839,75.12345679012346,0)" xlink:href="#aG"/><use transform="matrix(0.06172839506172839,0,0,0.06172839506172839,81.29629629629629,0)" xlink:href="#aF"/><use transform="matrix(0.06172839506172839,0,0,0.06172839506172839,86.17283950617283,0)" xlink:href="#ba"/><use transform="matrix(0.06172839506172839,0,0,0.06172839506172839,98.51851851851852,0)" xlink:href="#bb"/></g><g id="ai"><use transform="matrix(0.06172839506172839,0,0,0.06172839506172839,0,0)" xlink:href="#by"/><use transform="matrix(0.06172839506172839,0,0,0.06172839506172839,11.11111111111111,0)" xlink:href="#aI"/><use transform="matrix(0.06172839506172839,0,0,0.06172839506172839,23.45679012345679,0)" xlink:href="#an"/><use transform="matrix(0.06172839506172839,0,0,0.06172839506172839,30.80246913580247,0)" xlink:href="#bo"/><use transform="matrix(0.06172839506172839,0,0,0.06172839506172839,41.91358024691358,0)" xlink:href="#aZ"/><use transform="matrix(0.06172839506172839,0,0,0.06172839506172839,54.25925925925926,0)" xlink:href="#aI"/><use transform="matrix(0.06172839506172839,0,0,0.06172839506172839,66.60493827160494,0)" xlink:href="#an"/><use transform="matrix(0.06172839506172839,0,0,0.06172839506172839,73.95061728395062,0)" xlink:href="#bz"/><use transform="matrix(0.06172839506172839,0,0,0.06172839506172839,81.2962962962963,0)" xlink:href="#bA"/><use transform="matrix(0.06172839506172839,0,0,0.06172839506172839,93.64197530864199,0)" xlink:href="#bB"/><use transform="matrix(0.06172839506172839,0,0,0.06172839506172839,105.98765432098767,0)" xlink:href="#bB"/><use transform="matrix(0.06172839506172839,0,0,0.06172839506172839,118.33333333333336,0)" xlink:href="#bC"/></g><g id="aj"><use transform="matrix(0.05,0,0,0.05,0,0)" xlink:href="#aT"/><use transform="matrix(0.05,0,0,0.05,10,0)" xlink:href="#aU"/><use transform="matrix(0.05,0,0,0.05,20,0)" xlink:href="#aV"/></g></defs></g></svg>