<svg xmlns="http://www.w3.org/2000/svg" xmlns:xlink="http://www.w3.org/1999/xlink" xmlns:lucid="lucid" width="1400" height="926"><g transform="translate(-79.99999999999997 0)" lucid:page-tab-id="0_0"><path d="M0 0h1870.87v1322.84H0z" fill="#fff"/><path d="M100 486a6 6 0 0 1 6-6h408a6 6 0 0 1 6 6v414a6 6 0 0 1-6 6H106a6 6 0 0 1-6-6z" fill="#fff"/><path d="M100 520v-34a6 6 0 0 1 6-6h408a6 6 0 0 1 6 6v34" fill="#b8f5ed"/><path d="M100 486a6 6 0 0 1 6-6h408a6 6 0 0 1 6 6v414a6 6 0 0 1-6 6H106a6 6 0 0 1-6-6zM100 520h420M160 520v386M317.33 520v386" stroke="#3a414a" fill="none"/><use xlink:href="#a" transform="matrix(1,0,0,1,109.99999999999997,480) translate(177.10493827160494 24.444444444444443)"/><use xlink:href="#b" transform="matrix(1,0,0,1,104.99999999999997,522.5) translate(10.185185185185187 28.444444444444443)"/><use xlink:href="#c" transform="matrix(1,0,0,1,164.99999999999997,522.5) translate(0 28.444444444444443)"/><use xlink:href="#d" transform="matrix(1,0,0,1,322.33333333333326,522.5) translate(0 16.799999999999997)"/><use xlink:href="#e" transform="matrix(1,0,0,1,322.33333333333326,522.5) translate(33.900000000000006 16.799999999999997)"/><use xlink:href="#f" transform="matrix(1,0,0,1,322.33333333333326,522.5) translate(76.80000000000001 16.799999999999997)"/><use xlink:href="#g" transform="matrix(1,0,0,1,322.33333333333326,522.5) translate(0 38.4)"/><use xlink:href="#h" transform="matrix(1,0,0,1,104.99999999999997,575.5) translate(10.833333333333336 20.444444444444443)"/><use xlink:href="#i" transform="matrix(1,0,0,1,164.99999999999997,575.5) translate(0 20.444444444444443)"/><use xlink:href="#j" transform="matrix(1,0,0,1,322.33333333333326,575.5) translate(0 19.555555555555557)"/><use xlink:href="#k" transform="matrix(1,0,0,1,322.33333333333326,575.5) translate(33.1358024691358 19.555555555555557)"/><use xlink:href="#l" transform="matrix(1,0,0,1,322.33333333333326,575.5) translate(75.16049382716048 19.555555555555557)"/><use xlink:href="#m" transform="matrix(1,0,0,1,164.99999999999997,612.5) translate(0 20.444444444444443)"/><use xlink:href="#n" transform="matrix(1,0,0,1,322.33333333333326,612.5) translate(0 19.6)"/><use xlink:href="#o" transform="matrix(1,0,0,1,322.33333333333326,612.5) translate(96.80000000000001 19.6)"/><use xlink:href="#p" transform="matrix(1,0,0,1,322.33333333333326,612.5) translate(126.80000000000001 19.6)"/><use xlink:href="#q" transform="matrix(1,0,0,1,164.99999999999997,649.5) translate(0 20.444444444444443)"/><use xlink:href="#n" transform="matrix(1,0,0,1,322.33333333333326,649.5) translate(0 19.6)"/><use xlink:href="#o" transform="matrix(1,0,0,1,322.33333333333326,649.5) translate(96.80000000000001 19.6)"/><use xlink:href="#p" transform="matrix(1,0,0,1,322.33333333333326,649.5) translate(126.80000000000001 19.6)"/><use xlink:href="#r" transform="matrix(1,0,0,1,164.99999999999997,686.5) translate(0 20.444444444444443)"/><use xlink:href="#n" transform="matrix(1,0,0,1,322.33333333333326,686.5) translate(0 19.6)"/><use xlink:href="#o" transform="matrix(1,0,0,1,322.33333333333326,686.5) translate(96.80000000000001 19.6)"/><use xlink:href="#p" transform="matrix(1,0,0,1,322.33333333333326,686.5) translate(126.80000000000001 19.6)"/><use xlink:href="#s" transform="matrix(1,0,0,1,164.99999999999997,723.5) translate(0 20.444444444444443)"/><use xlink:href="#n" transform="matrix(1,0,0,1,322.33333333333326,723.5) translate(0 19.6)"/><use xlink:href="#o" transform="matrix(1,0,0,1,322.33333333333326,723.5) translate(96.80000000000001 19.6)"/><use xlink:href="#p" transform="matrix(1,0,0,1,322.33333333333326,723.5) translate(126.80000000000001 19.6)"/><use xlink:href="#t" transform="matrix(1,0,0,1,164.99999999999997,760.5) translate(0 20.444444444444443)"/><use xlink:href="#u" transform="matrix(1,0,0,1,322.33333333333326,760.5) translate(0 19.6)"/><use xlink:href="#o" transform="matrix(1,0,0,1,322.33333333333326,760.5) translate(73.9 19.6)"/><use xlink:href="#p" transform="matrix(1,0,0,1,322.33333333333326,760.5) translate(103.9 19.6)"/><use xlink:href="#v" transform="matrix(1,0,0,1,164.99999999999997,797.5) translate(0 20.444444444444443)"/><use xlink:href="#n" transform="matrix(1,0,0,1,322.33333333333326,797.5) translate(0 19.6)"/><use xlink:href="#o" transform="matrix(1,0,0,1,322.33333333333326,797.5) translate(96.80000000000001 19.6)"/><use xlink:href="#p" transform="matrix(1,0,0,1,322.33333333333326,797.5) translate(126.80000000000001 19.6)"/><use xlink:href="#w" transform="matrix(1,0,0,1,164.99999999999997,834.5) translate(0 20.444444444444443)"/><use xlink:href="#n" transform="matrix(1,0,0,1,322.33333333333326,834.5) translate(0 19.6)"/><use xlink:href="#o" transform="matrix(1,0,0,1,322.33333333333326,834.5) translate(96.80000000000001 19.6)"/><use xlink:href="#p" transform="matrix(1,0,0,1,322.33333333333326,834.5) translate(126.80000000000001 19.6)"/><use xlink:href="#x" transform="matrix(1,0,0,1,164.99999999999997,871.5) translate(0 20.444444444444443)"/><use xlink:href="#n" transform="matrix(1,0,0,1,322.33333333333326,871.5) translate(0 19.6)"/><use xlink:href="#o" transform="matrix(1,0,0,1,322.33333333333326,871.5) translate(96.80000000000001 19.6)"/><use xlink:href="#p" transform="matrix(1,0,0,1,322.33333333333326,871.5) translate(126.80000000000001 19.6)"/><path d="M360 26a6 6 0 0 1 6-6h428a6 6 0 0 1 6 6v282a6 6 0 0 1-6 6H366a6 6 0 0 1-6-6z" fill-opacity="0"/><path d="M360 60V26a6 6 0 0 1 6-6h428a6 6 0 0 1 6 6v34" fill="#b8f5ed"/><path d="M360 26a6 6 0 0 1 6-6h428a6 6 0 0 1 6 6v282a6 6 0 0 1-6 6H366a6 6 0 0 1-6-6zM360 60h440M448 60v254M618.67 60v254" stroke="#3a414a" fill="none"/><use xlink:href="#y" transform="matrix(1,0,0,1,370,20) translate(146.48148148148147 24.444444444444443)"/><use xlink:href="#z" transform="matrix(1,0,0,1,365,62.5) translate(6.932098765432102 28.444444444444443)"/><use xlink:href="#c" transform="matrix(1,0,0,1,453,62.5) translate(0 28.444444444444443)"/><use xlink:href="#d" transform="matrix(1,0,0,1,623.6666666666671,62.5) translate(0 16.799999999999997)"/><use xlink:href="#e" transform="matrix(1,0,0,1,623.6666666666671,62.5) translate(33.900000000000006 16.799999999999997)"/><use xlink:href="#f" transform="matrix(1,0,0,1,623.6666666666671,62.5) translate(76.80000000000001 16.799999999999997)"/><use xlink:href="#g" transform="matrix(1,0,0,1,623.6666666666671,62.5) translate(0 38.4)"/><use xlink:href="#z" transform="matrix(1,0,0,1,365,115.5) translate(6.932098765432102 28.444444444444443)"/><use xlink:href="#A" transform="matrix(1,0,0,1,453,115.5) translate(0 28.444444444444443)"/><use xlink:href="#d" transform="matrix(1,0,0,1,623.6666666666671,115.5) translate(0 16.799999999999997)"/><use xlink:href="#e" transform="matrix(1,0,0,1,623.6666666666671,115.5) translate(33.900000000000006 16.799999999999997)"/><use xlink:href="#f" transform="matrix(1,0,0,1,623.6666666666671,115.5) translate(76.80000000000001 16.799999999999997)"/><use xlink:href="#g" transform="matrix(1,0,0,1,623.6666666666671,115.5) translate(0 38.4)"/><use xlink:href="#B" transform="matrix(1,0,0,1,453,168.5) translate(0 20.444444444444443)"/><use xlink:href="#C" transform="matrix(1,0,0,1,623.6666666666671,168.5) translate(0 20.444444444444443)"/><use xlink:href="#D" transform="matrix(1,0,0,1,453,205.5) translate(0 20.444444444444443)"/><use xlink:href="#E" transform="matrix(1,0,0,1,623.6666666666671,205.5) translate(0 20.444444444444443)"/><use xlink:href="#F" transform="matrix(1,0,0,1,453,242.5) translate(0 20.444444444444443)"/><use xlink:href="#G" transform="matrix(1,0,0,1,623.6666666666671,242.5) translate(0 19.6)"/><use xlink:href="#H" transform="matrix(1,0,0,1,623.6666666666671,242.5) translate(68.95 19.6)"/><use xlink:href="#I" transform="matrix(1,0,0,1,623.6666666666671,242.5) translate(127.9 19.6)"/><use xlink:href="#h" transform="matrix(1,0,0,1,365,279.5) translate(24.833333333333336 20.444444444444443)"/><use xlink:href="#J" transform="matrix(1,0,0,1,453,279.5) translate(0 20.444444444444443)"/><use xlink:href="#d" transform="matrix(1,0,0,1,623.6666666666671,279.5) translate(0 19.6)"/><use xlink:href="#e" transform="matrix(1,0,0,1,623.6666666666671,279.5) translate(33.900000000000006 19.6)"/><use xlink:href="#K" transform="matrix(1,0,0,1,623.6666666666671,279.5) translate(76.80000000000001 19.6)"/><path d="M640 446a6 6 0 0 1 6-6h468a6 6 0 0 1 6 6v118a6 6 0 0 1-6 6H646a6 6 0 0 1-6-6z" fill="#fff"/><path d="M640 480v-34a6 6 0 0 1 6-6h468a6 6 0 0 1 6 6v34" fill="#b8f5ed"/><path d="M640 446a6 6 0 0 1 6-6h468a6 6 0 0 1 6 6v118a6 6 0 0 1-6 6H646a6 6 0 0 1-6-6zM640 480h480M700 480v90M905.33 480v90" stroke="#3a414a" fill="none"/><use xlink:href="#L" transform="matrix(1,0,0,1,649.9999999999999,440) translate(184.320987654321 24.444444444444443)"/><use xlink:href="#b" transform="matrix(1,0,0,1,644.9999999999999,482.5) translate(10.185185185185187 28.444444444444443)"/><use xlink:href="#A" transform="matrix(1,0,0,1,704.9999999999999,482.5) translate(0 28.444444444444443)"/><use xlink:href="#d" transform="matrix(1,0,0,1,910.3333333333334,482.5) translate(0 16.799999999999997)"/><use xlink:href="#e" transform="matrix(1,0,0,1,910.3333333333334,482.5) translate(33.900000000000006 16.799999999999997)"/><use xlink:href="#f" transform="matrix(1,0,0,1,910.3333333333334,482.5) translate(76.80000000000001 16.799999999999997)"/><use xlink:href="#g" transform="matrix(1,0,0,1,910.3333333333334,482.5) translate(0 38.4)"/><use xlink:href="#M" transform="matrix(1,0,0,1,704.9999999999999,535.5) translate(0 20.444444444444443)"/><use xlink:href="#n" transform="matrix(1,0,0,1,910.3333333333334,535.5) translate(0 19.6)"/><use xlink:href="#o" transform="matrix(1,0,0,1,910.3333333333334,535.5) translate(96.80000000000001 19.6)"/><use xlink:href="#p" transform="matrix(1,0,0,1,910.3333333333334,535.5) translate(126.80000000000001 19.6)"/><path d="M640 634a6 6 0 0 1 6-6h468a6 6 0 0 1 6 6v192a6 6 0 0 1-6 6H646a6 6 0 0 1-6-6z" fill="#fff"/><path d="M640 668v-34a6 6 0 0 1 6-6h468a6 6 0 0 1 6 6v34" fill="#b8f5ed"/><path d="M640 634a6 6 0 0 1 6-6h468a6 6 0 0 1 6 6v192a6 6 0 0 1-6 6H646a6 6 0 0 1-6-6zM640 668h480M700 668v164M917.33 668v164" stroke="#3a414a" fill="none"/><use xlink:href="#N" transform="matrix(1,0,0,1,650,628) translate(199.6358024691358 24.444444444444443)"/><use xlink:href="#b" transform="matrix(1,0,0,1,645,670.5) translate(10.185185185185187 28.444444444444443)"/><use xlink:href="#i" transform="matrix(1,0,0,1,705,670.5) translate(0 28.444444444444443)"/><use xlink:href="#d" transform="matrix(1,0,0,1,922.3333333333335,670.5) translate(0 16.799999999999997)"/><use xlink:href="#e" transform="matrix(1,0,0,1,922.3333333333335,670.5) translate(33.900000000000006 16.799999999999997)"/><use xlink:href="#f" transform="matrix(1,0,0,1,922.3333333333335,670.5) translate(76.80000000000001 16.799999999999997)"/><use xlink:href="#g" transform="matrix(1,0,0,1,922.3333333333335,670.5) translate(0 38.4)"/><use xlink:href="#O" transform="matrix(1,0,0,1,705,723.5) translate(0 20.444444444444443)"/><use xlink:href="#n" transform="matrix(1,0,0,1,922.3333333333335,723.5) translate(0 19.6)"/><use xlink:href="#o" transform="matrix(1,0,0,1,922.3333333333335,723.5) translate(96.80000000000001 19.6)"/><use xlink:href="#p" transform="matrix(1,0,0,1,922.3333333333335,723.5) translate(126.80000000000001 19.6)"/><use xlink:href="#r" transform="matrix(1,0,0,1,705,760.5) translate(0 20.444444444444443)"/><use xlink:href="#n" transform="matrix(1,0,0,1,922.3333333333335,760.5) translate(0 19.6)"/><use xlink:href="#o" transform="matrix(1,0,0,1,922.3333333333335,760.5) translate(96.80000000000001 19.6)"/><use xlink:href="#p" transform="matrix(1,0,0,1,922.3333333333335,760.5) translate(126.80000000000001 19.6)"/><use xlink:href="#s" transform="matrix(1,0,0,1,705,797.5) translate(0 20.444444444444443)"/><use xlink:href="#n" transform="matrix(1,0,0,1,922.3333333333335,797.5) translate(0 19.6)"/><use xlink:href="#o" transform="matrix(1,0,0,1,922.3333333333335,797.5) translate(96.80000000000001 19.6)"/><use xlink:href="#p" transform="matrix(1,0,0,1,922.3333333333335,797.5) translate(126.80000000000001 19.6)"/><path d="M880 419.5v-327a6 6 0 0 0-6-6h-54.1" stroke="#3a414a" fill="none"/><path d="M890 419.5h-20M880 439.5v-20" stroke="#3a414a" fill="#fff"/><path d="M800.72 76.5l20 10-20 10" stroke="#3a414a" fill="#fff" fill-opacity="0"/><path d="M800.72 86.5h20" stroke="#3a414a" fill="#fff"/><path d="M310 459.5v-367a6 6 0 0 1 6-6h24.1" stroke="#3a414a" fill="none"/><path d="M320 459.5h-20M310 479.5v-20" stroke="#3a414a" fill="#fff"/><path d="M359.28 96.5l-20-10 20-10" stroke="#3a414a" fill="#fff" fill-opacity="0"/><path d="M359.28 86.5h-20" stroke="#3a414a" fill="#fff"/><path d="M540.5 739.5h79.6" stroke="#3a414a" fill="none"/><path d="M540.5 749.5v-20M520.5 739.5h20" stroke="#3a414a" fill="#fff"/><path d="M639.28 749.5l-20-10 20-10" stroke="#3a414a" fill="#fff" fill-opacity="0"/><path d="M639.28 739.5h-20" stroke="#3a414a" fill="#fff"/><path d="M820.5 86.5H874a6 6 0 0 1 6 6v327.6" stroke="#3a414a" fill="none"/><path d="M820.5 96.5v-20M800.5 86.5h20" stroke="#3a414a" fill="#fff"/><path d="M870 439.28l10-20 10 20" stroke="#3a414a" fill="#fff" fill-opacity="0"/><path d="M880 439.28v-20" stroke="#3a414a" fill="#fff"/><path d="M960 26a6 6 0 0 1 6-6h488a6 6 0 0 1 6 6v303a6 6 0 0 1-6 6H966a6 6 0 0 1-6-6z" fill="#fff"/><path d="M960 60V26a6 6 0 0 1 6-6h488a6 6 0 0 1 6 6v34" fill="#b8f5ed"/><path d="M960 26a6 6 0 0 1 6-6h488a6 6 0 0 1 6 6v303a6 6 0 0 1-6 6H966a6 6 0 0 1-6-6zM960 60h500M1020 60v275M1257.33 60v275" stroke="#3a414a" fill="none"/><g><use xlink:href="#P" transform="matrix(1,0,0,1,970,20) translate(176.91358024691357 24.444444444444443)"/></g><g><use xlink:href="#b" transform="matrix(1,0,0,1,965,62.5) translate(10.185185185185187 28.444444444444443)"/></g><g><use xlink:href="#J" transform="matrix(1,0,0,1,1025,62.5) translate(0 28.444444444444443)"/></g><g><use xlink:href="#d" transform="matrix(1,0,0,1,1262.3333333333342,62.5) translate(0 16.799999999999997)"/><use xlink:href="#e" transform="matrix(1,0,0,1,1262.3333333333342,62.5) translate(33.900000000000006 16.799999999999997)"/><use xlink:href="#f" transform="matrix(1,0,0,1,1262.3333333333342,62.5) translate(76.80000000000001 16.799999999999997)"/><use xlink:href="#g" transform="matrix(1,0,0,1,1262.3333333333342,62.5) translate(0 38.4)"/></g><g><use xlink:href="#h" transform="matrix(1,0,0,1,965,115.5) translate(10.833333333333336 20.444444444444443)"/></g><g><use xlink:href="#A" transform="matrix(1,0,0,1,1025,115.5) translate(0 20.444444444444443)"/></g><g><use xlink:href="#j" transform="matrix(1,0,0,1,1262.3333333333342,115.5) translate(0 19.555555555555557)"/><use xlink:href="#k" transform="matrix(1,0,0,1,1262.3333333333342,115.5) translate(33.1358024691358 19.555555555555557)"/><use xlink:href="#l" transform="matrix(1,0,0,1,1262.3333333333342,115.5) translate(75.16049382716048 19.555555555555557)"/></g><g><use xlink:href="#h" transform="matrix(1,0,0,1,965,152.5) translate(10.833333333333336 20.444444444444443)"/></g><g><use xlink:href="#c" transform="matrix(1,0,0,1,1025,152.5) translate(0 20.444444444444443)"/></g><g><use xlink:href="#j" transform="matrix(1,0,0,1,1262.3333333333342,152.5) translate(0 19.555555555555557)"/><use xlink:href="#k" transform="matrix(1,0,0,1,1262.3333333333342,152.5) translate(33.1358024691358 19.555555555555557)"/><use xlink:href="#l" transform="matrix(1,0,0,1,1262.3333333333342,152.5) translate(75.16049382716048 19.555555555555557)"/></g><g><use xlink:href="#Q" transform="matrix(1,0,0,1,1025,189.5) translate(0 20.444444444444443)"/></g><g><use xlink:href="#E" transform="matrix(1,0,0,1,1262.3333333333342,189.5) translate(0 20.444444444444443)"/></g><g><use xlink:href="#R" transform="matrix(1,0,0,1,1025,226.5) translate(0 20.444444444444443)"/></g><g><use xlink:href="#E" transform="matrix(1,0,0,1,1262.3333333333342,226.5) translate(0 20.444444444444443)"/></g><g><use xlink:href="#S" transform="matrix(1,0,0,1,1025,263.5) translate(0 20.444444444444443)"/></g><g><use xlink:href="#E" transform="matrix(1,0,0,1,1262.3333333333342,263.5) translate(0 20.444444444444443)"/></g><g><use xlink:href="#T" transform="matrix(1,0,0,1,1025,300.5) translate(0 20.444444444444443)"/></g><g><use xlink:href="#E" transform="matrix(1,0,0,1,1262.3333333333342,300.5) translate(0 20.444444444444443)"/></g><path d="M820.5 40h119.6" stroke="#3a414a" fill="none"/><path d="M820.5 50V30M800.5 40h20" stroke="#3a414a" fill="#fff"/><path d="M959.27 50l-20-10 20-10" stroke="#3a414a" fill="#fff" fill-opacity="0"/><path d="M959.27 40h-20" stroke="#3a414a" fill="#fff"/><path d="M1140.5 506.5h63.5a6 6 0 0 0 6-6V354.9" stroke="#3a414a" fill="none"/><path d="M1140.5 516.5v-20M1120.5 506.5h20" stroke="#3a414a" fill="#fff"/><path d="M1220 335.72l-10 20-10-20" stroke="#3a414a" fill="#fff" fill-opacity="0"/><path d="M1210 335.72v20" stroke="#3a414a" fill="#fff"/><defs><path fill="#3a414a" d="M232-93c-1 65-40 97-104 97C67 4 28-28 28-90v-158h33c8 89-33 224 67 224 102 0 64-133 71-224h33v155" id="U"/><path fill="#3a414a" d="M135-143c-3-34-86-38-87 0 15 53 115 12 119 90S17 21 10-45l28-5c4 36 97 45 98 0-10-56-113-15-118-90-4-57 82-63 122-42 12 7 21 19 24 35" id="V"/><path fill="#3a414a" d="M100-194c63 0 86 42 84 106H49c0 40 14 67 53 68 26 1 43-12 49-29l28 8c-11 28-37 45-77 45C44 4 14-33 15-96c1-61 26-98 85-98zm52 81c6-60-76-77-97-28-3 7-6 17-6 28h103" id="W"/><path fill="#3a414a" d="M114-163C36-179 61-72 57 0H25l-1-190h30c1 12-1 29 2 39 6-27 23-49 58-41v29" id="X"/><g id="a"><use transform="matrix(0.06172839506172839,0,0,0.06172839506172839,0,0)" xlink:href="#U"/><use transform="matrix(0.06172839506172839,0,0,0.06172839506172839,15.987654320987653,0)" xlink:href="#V"/><use transform="matrix(0.06172839506172839,0,0,0.06172839506172839,27.098765432098766,0)" xlink:href="#W"/><use transform="matrix(0.06172839506172839,0,0,0.06172839506172839,39.44444444444444,0)" xlink:href="#X"/></g><path fill="#3a414a" d="M30-248c87 1 191-15 191 75 0 78-77 80-158 76V0H30v-248zm33 125c57 0 124 11 124-50 0-59-68-47-124-48v98" id="Y"/><path fill="#3a414a" d="M194 0L95-120 63-95V0H30v-248h33v124l119-124h40L117-140 236 0h-42" id="Z"/><g id="b"><use transform="matrix(0.06172839506172839,0,0,0.06172839506172839,0,0)" xlink:href="#Y"/><use transform="matrix(0.06172839506172839,0,0,0.06172839506172839,14.814814814814813,0)" xlink:href="#Z"/></g><path fill="#3a414a" d="M33 0v-248h34V0H33" id="aa"/><path fill="#3a414a" d="M30-248c118-7 216 8 213 122C240-48 200 0 122 0H30v-248zM63-27c89 8 146-16 146-99s-60-101-146-95v194" id="ab"/><g id="c"><use transform="matrix(0.06172839506172839,0,0,0.06172839506172839,0,0)" xlink:href="#U"/><use transform="matrix(0.06172839506172839,0,0,0.06172839506172839,15.987654320987653,0)" xlink:href="#V"/><use transform="matrix(0.06172839506172839,0,0,0.06172839506172839,27.098765432098766,0)" xlink:href="#W"/><use transform="matrix(0.06172839506172839,0,0,0.06172839506172839,39.44444444444444,0)" xlink:href="#X"/><use transform="matrix(0.06172839506172839,0,0,0.06172839506172839,46.79012345679012,0)" xlink:href="#aa"/><use transform="matrix(0.06172839506172839,0,0,0.06172839506172839,52.96296296296296,0)" xlink:href="#ab"/></g><path fill="#333" d="M14 0l48-248h34L48 0H14" id="ac"/><path fill="#333" d="M173 0L80-213 41 0H11l48-248h37l94 214 40-214h30L212 0h-39" id="ad"/><path fill="#333" d="M151-220L108 0H75l42-220H32l6-28h203l-5 28h-85" id="ae"/><g id="d"><use transform="matrix(0.05,0,0,0.05,0,0)" xlink:href="#ac"/><use transform="matrix(0.05,0,0,0.05,5,0)" xlink:href="#ad"/><use transform="matrix(0.05,0,0,0.05,17.950000000000003,0)" xlink:href="#ae"/></g><path fill="#333" d="M20-101c0-91 52-143 145-150 126-9 127 168 53 223-23 17-55 32-93 32C57 4 20-33 20-101zm216-33c5-57-18-91-73-90-77 1-110 51-110 125 0 49 23 75 73 75 72-1 104-45 110-110" id="af"/><g id="e"><use transform="matrix(0.05,0,0,0.05,0,0)" xlink:href="#ad"/><use transform="matrix(0.05,0,0,0.05,12.950000000000001,0)" xlink:href="#af"/><use transform="matrix(0.05,0,0,0.05,26.950000000000003,0)" xlink:href="#ae"/></g><path fill="#333" d="M62-99C39-31 123 0 170-40s38-139 58-208h34C234-144 253 4 115 4 49 4 18-43 31-112l26-136h34" id="ag"/><path fill="#333" d="M11 0l48-248h34L50-27h125l-5 27H11" id="ah"/><g id="f"><use transform="matrix(0.05,0,0,0.05,0,0)" xlink:href="#ad"/><use transform="matrix(0.05,0,0,0.05,12.950000000000001,0)" xlink:href="#ag"/><use transform="matrix(0.05,0,0,0.05,25.900000000000002,0)" xlink:href="#ah"/><use transform="matrix(0.05,0,0,0.05,35.900000000000006,0)" xlink:href="#ah"/></g><path fill="#333" d="M187 0l-14-72H61L19 0h-37l149-248h38L221 0h-34zm-19-99l-22-123L76-99h92" id="ai"/><path fill="#333" d="M-28 44V31h207v13H-28" id="aj"/><path fill="#333" d="M125-24c46 0 70-25 89-51l25 16C214-24 183 4 123 4 8 4-5-146 60-208c32-50 158-61 191-5 5 7 9 14 11 22l-32 10c-9-28-33-43-69-43-74 0-108 51-108 125 0 46 24 75 72 75" id="ak"/><path fill="#333" d="M249-183c0 48-29 72-75 77L221 0h-36l-43-103H65L45 0H11l48-248c83 2 190-17 190 65zm-34 3c0-55-74-39-127-41l-18 92c63-1 145 13 145-51" id="al"/><path fill="#333" d="M11 0l48-248h184l-5 28H87l-15 79h140l-5 27H67L50-27h158l-5 27H11" id="am"/><path fill="#333" d="M222 0l43-216c-8 16-17 34-26 49L143 0h-22L81-216 41 0H11l48-248h42l38 208 116-208h45L252 0h-30" id="an"/><g id="g"><use transform="matrix(0.05,0,0,0.05,0,0)" xlink:href="#ai"/><use transform="matrix(0.05,0,0,0.05,12,0)" xlink:href="#ag"/><use transform="matrix(0.05,0,0,0.05,24.950000000000003,0)" xlink:href="#ae"/><use transform="matrix(0.05,0,0,0.05,35.550000000000004,0)" xlink:href="#af"/><use transform="matrix(0.05,0,0,0.05,49.550000000000004,0)" xlink:href="#aj"/><use transform="matrix(0.05,0,0,0.05,59.550000000000004,0)" xlink:href="#ac"/><use transform="matrix(0.05,0,0,0.05,64.55000000000001,0)" xlink:href="#ad"/><use transform="matrix(0.05,0,0,0.05,77.50000000000001,0)" xlink:href="#ak"/><use transform="matrix(0.05,0,0,0.05,90.45000000000002,0)" xlink:href="#al"/><use transform="matrix(0.05,0,0,0.05,103.40000000000003,0)" xlink:href="#am"/><use transform="matrix(0.05,0,0,0.05,115.40000000000003,0)" xlink:href="#an"/><use transform="matrix(0.05,0,0,0.05,130.35000000000002,0)" xlink:href="#am"/><use transform="matrix(0.05,0,0,0.05,142.35000000000002,0)" xlink:href="#ad"/><use transform="matrix(0.05,0,0,0.05,155.3,0)" xlink:href="#ae"/></g><path fill="#3a414a" d="M63-220v92h138v28H63V0H30v-248h175v28H63" id="ao"/><g id="h"><use transform="matrix(0.06172839506172839,0,0,0.06172839506172839,0,0)" xlink:href="#ao"/><use transform="matrix(0.06172839506172839,0,0,0.06172839506172839,13.518518518518517,0)" xlink:href="#Z"/></g><path fill="#3a414a" d="M160-131c35 5 61 23 61 61C221 17 115-2 30 0v-248c76 3 177-17 177 60 0 33-19 50-47 57zm-97-11c50-1 110 9 110-42 0-47-63-36-110-37v79zm0 115c55-2 124 14 124-45 0-56-70-42-124-44v89" id="ap"/><path fill="#3a414a" d="M141-36C126-15 110 5 73 4 37 3 15-17 15-53c-1-64 63-63 125-63 3-35-9-54-41-54-24 1-41 7-42 31l-33-3c5-37 33-52 76-52 45 0 72 20 72 64v82c-1 20 7 32 28 27v20c-31 9-61-2-59-35zM48-53c0 20 12 33 32 33 41-3 63-29 60-74-43 2-92-5-92 41" id="aq"/><path fill="#3a414a" d="M117-194c89-4 53 116 60 194h-32v-121c0-31-8-49-39-48C34-167 62-67 57 0H25l-1-190h30c1 10-1 24 2 32 11-22 29-35 61-36" id="ar"/><path fill="#3a414a" d="M143 0L79-87 56-68V0H24v-261h32v163l83-92h37l-77 82L181 0h-38" id="as"/><g id="i"><use transform="matrix(0.06172839506172839,0,0,0.06172839506172839,0,0)" xlink:href="#ap"/><use transform="matrix(0.06172839506172839,0,0,0.06172839506172839,14.814814814814813,0)" xlink:href="#aq"/><use transform="matrix(0.06172839506172839,0,0,0.06172839506172839,27.160493827160494,0)" xlink:href="#ar"/><use transform="matrix(0.06172839506172839,0,0,0.06172839506172839,39.50617283950617,0)" xlink:href="#as"/><use transform="matrix(0.06172839506172839,0,0,0.06172839506172839,50.61728395061728,0)" xlink:href="#aa"/><use transform="matrix(0.06172839506172839,0,0,0.06172839506172839,56.79012345679012,0)" xlink:href="#ab"/></g><path fill="#3a414a" d="M190 0L58-211 59 0H30v-248h39L202-35l-2-213h31V0h-41" id="at"/><path fill="#3a414a" d="M127-220V0H93v-220H8v-28h204v28h-85" id="au"/><g id="j"><use transform="matrix(0.049382716049382706,0,0,0.049382716049382706,0,0)" xlink:href="#aa"/><use transform="matrix(0.049382716049382706,0,0,0.049382716049382706,4.93827160493827,0)" xlink:href="#at"/><use transform="matrix(0.049382716049382706,0,0,0.049382716049382706,17.728395061728392,0)" xlink:href="#au"/></g><path fill="#3a414a" d="M140-251c81 0 123 46 123 126C263-46 219 4 140 4 59 4 17-45 17-125s42-126 123-126zm0 227c63 0 89-41 89-101s-29-99-89-99c-61 0-89 39-89 99S79-25 140-24" id="av"/><g id="k"><use transform="matrix(0.049382716049382706,0,0,0.049382716049382706,0,0)" xlink:href="#at"/><use transform="matrix(0.049382716049382706,0,0,0.049382716049382706,12.790123456790122,0)" xlink:href="#av"/><use transform="matrix(0.049382716049382706,0,0,0.049382716049382706,26.617283950617278,0)" xlink:href="#au"/></g><path fill="#3a414a" d="M30 0v-248h33v221h125V0H30" id="aw"/><g id="l"><use transform="matrix(0.049382716049382706,0,0,0.049382716049382706,0,0)" xlink:href="#at"/><use transform="matrix(0.049382716049382706,0,0,0.049382716049382706,12.790123456790122,0)" xlink:href="#U"/><use transform="matrix(0.049382716049382706,0,0,0.049382716049382706,25.580246913580243,0)" xlink:href="#aw"/><use transform="matrix(0.049382716049382706,0,0,0.049382716049382706,35.456790123456784,0)" xlink:href="#aw"/></g><path fill="#3a414a" d="M24-231v-30h32v30H24zM24 0v-190h32V0H24" id="ax"/><path fill="#3a414a" d="M59-47c-2 24 18 29 38 22v24C64 9 27 4 27-40v-127H5v-23h24l9-43h21v43h35v23H59v120" id="ay"/><path fill="#3a414a" d="M210-169c-67 3-38 105-44 169h-31v-121c0-29-5-50-35-48C34-165 62-65 56 0H25l-1-190h30c1 10-1 24 2 32 10-44 99-50 107 0 11-21 27-35 58-36 85-2 47 119 55 194h-31v-121c0-29-5-49-35-48" id="az"/><g id="m"><use transform="matrix(0.06172839506172839,0,0,0.06172839506172839,0,0)" xlink:href="#ao"/><use transform="matrix(0.06172839506172839,0,0,0.06172839506172839,13.518518518518517,0)" xlink:href="#ax"/><use transform="matrix(0.06172839506172839,0,0,0.06172839506172839,18.39506172839506,0)" xlink:href="#X"/><use transform="matrix(0.06172839506172839,0,0,0.06172839506172839,25.74074074074074,0)" xlink:href="#V"/><use transform="matrix(0.06172839506172839,0,0,0.06172839506172839,36.85185185185185,0)" xlink:href="#ay"/><use transform="matrix(0.06172839506172839,0,0,0.06172839506172839,43.02469135802469,0)" xlink:href="#at"/><use transform="matrix(0.06172839506172839,0,0,0.06172839506172839,59.01234567901234,0)" xlink:href="#aq"/><use transform="matrix(0.06172839506172839,0,0,0.06172839506172839,71.35802469135803,0)" xlink:href="#az"/><use transform="matrix(0.06172839506172839,0,0,0.06172839506172839,89.81481481481481,0)" xlink:href="#W"/></g><path fill="#333" d="M89 0H52L20-190h33L74-25l89-165h34" id="aA"/><path fill="#333" d="M165-48c-4 18 1 34 23 27l-3 20c-29 8-62 0-52-35h-2C116-14 99 4 63 4 30 4 8-16 8-49c0-68 71-67 138-67 10-26 0-56-31-54-26 1-42 9-47 31l-32-5c8-67 160-71 144 15-5 28-9 54-15 81zM42-50c3 52 80 24 89-6 7-12 7-24 11-38-47 1-103-4-100 44" id="aB"/><path fill="#333" d="M66-151c12-25 30-51 66-40l-6 26C45-176 58-65 38 0H6l36-190h30" id="aC"/><path fill="#333" d="M44-68c0 29 11 47 38 47 30 0 42-19 51-41l28 9C148-21 126 4 82 4 31 4 10-29 12-85c3-77 74-140 146-93 12 8 15 23 18 40l-31 5c-1-22-13-36-36-36-52 0-65 49-65 101" id="aD"/><path fill="#333" d="M67-158c15-20 31-36 64-36 94 0 33 127 27 194h-32l25-140c3-38-53-32-70-12C52-117 51-51 37 0H6l51-261h31" id="aE"/><path fill="#333" d="M17-49c1-102 45-165 103-212h30C92-210 49-145 49-46 49 4 63 43 85 75H54C30 43 18 2 17-49" id="aF"/><path fill="#333" d="M123-251c66 0 92 69 53 113C138-94 73-75 39-27h128l-5 27H-2c17-92 123-93 159-163 14-28-1-64-36-62-29 2-46 17-54 41l-30-6c13-36 37-61 86-61" id="aG"/><path fill="#333" d="M16-82c0-90 25-169 113-169 48 0 68 33 68 82C197-79 170 4 84 4 37 4 16-31 16-82zm30 5c0 32 11 55 40 55 69 0 76-79 80-149 2-32-10-55-39-55-69 0-81 81-81 149" id="aH"/><path fill="#333" d="M98-137C97-35 54 29-4 75h-31C23 23 67-41 67-140c0-50-15-89-37-121h31c24 32 36 73 37 124" id="aI"/><g id="n"><use transform="matrix(0.05,0,0,0.05,0,0)" xlink:href="#aA"/><use transform="matrix(0.05,0,0,0.05,9,0)" xlink:href="#aB"/><use transform="matrix(0.05,0,0,0.05,19,0)" xlink:href="#aC"/><use transform="matrix(0.05,0,0,0.05,24.95,0)" xlink:href="#aD"/><use transform="matrix(0.05,0,0,0.05,33.95,0)" xlink:href="#aE"/><use transform="matrix(0.05,0,0,0.05,43.95,0)" xlink:href="#aB"/><use transform="matrix(0.05,0,0,0.05,53.95,0)" xlink:href="#aC"/><use transform="matrix(0.05,0,0,0.05,59.900000000000006,0)" xlink:href="#aF"/><use transform="matrix(0.05,0,0,0.05,65.85000000000001,0)" xlink:href="#aG"/><use transform="matrix(0.05,0,0,0.05,75.85000000000001,0)" xlink:href="#aH"/><use transform="matrix(0.05,0,0,0.05,85.85000000000001,0)" xlink:href="#aI"/></g><path fill="#333" d="M67-158c22-48 132-52 116 29L158 0h-32l25-140c3-38-53-32-70-12C52-117 51-52 38 0H6l36-190h30" id="aJ"/><path fill="#333" d="M30-147c31-64 166-65 159 27C183-49 158 1 86 4 9 8 1-88 30-147zM88-20c53 0 68-48 68-100 0-31-11-51-44-50-52 1-68 46-68 97 0 32 13 53 44 53" id="aK"/><path fill="#333" d="M51-54c-9 22 5 41 31 30L79-1C43 14 10-4 19-52l22-115H19l5-23h22l19-43h21l-9 43h35l-4 23H73" id="aL"/><g id="o"><use transform="matrix(0.05,0,0,0.05,0,0)" xlink:href="#aJ"/><use transform="matrix(0.05,0,0,0.05,10,0)" xlink:href="#aK"/><use transform="matrix(0.05,0,0,0.05,20,0)" xlink:href="#aL"/></g><path fill="#333" d="M67 3c-93-2-31-127-26-193h32L48-50c-3 39 53 32 70 12 30-34 30-101 43-152h32L157 0h-30c1-10 6-24 4-33-14 20-29 37-64 36" id="aM"/><path fill="#333" d="M6 0l50-261h32L37 0H6" id="aN"/><g id="p"><use transform="matrix(0.05,0,0,0.05,0,0)" xlink:href="#aJ"/><use transform="matrix(0.05,0,0,0.05,10,0)" xlink:href="#aM"/><use transform="matrix(0.05,0,0,0.05,20,0)" xlink:href="#aN"/><use transform="matrix(0.05,0,0,0.05,23.95,0)" xlink:href="#aN"/></g><g id="q"><use transform="matrix(0.06172839506172839,0,0,0.06172839506172839,0,0)" xlink:href="#aw"/><use transform="matrix(0.06172839506172839,0,0,0.06172839506172839,12.345679012345679,0)" xlink:href="#aq"/><use transform="matrix(0.06172839506172839,0,0,0.06172839506172839,24.691358024691358,0)" xlink:href="#V"/><use transform="matrix(0.06172839506172839,0,0,0.06172839506172839,35.80246913580247,0)" xlink:href="#ay"/><use transform="matrix(0.06172839506172839,0,0,0.06172839506172839,41.97530864197531,0)" xlink:href="#at"/><use transform="matrix(0.06172839506172839,0,0,0.06172839506172839,57.96296296296296,0)" xlink:href="#aq"/><use transform="matrix(0.06172839506172839,0,0,0.06172839506172839,70.30864197530865,0)" xlink:href="#az"/><use transform="matrix(0.06172839506172839,0,0,0.06172839506172839,88.76543209876543,0)" xlink:href="#W"/></g><path fill="#3a414a" d="M106-169C34-169 62-67 57 0H25v-261h32l-1 103c12-21 28-36 61-36 89 0 53 116 60 194h-32v-121c2-32-8-49-39-48" id="aO"/><path fill="#3a414a" d="M100-194c62-1 85 37 85 99 1 63-27 99-86 99S16-35 15-95c0-66 28-99 85-99zM99-20c44 1 53-31 53-75 0-43-8-75-51-75s-53 32-53 75 10 74 51 75" id="aP"/><g id="r"><use transform="matrix(0.06172839506172839,0,0,0.06172839506172839,0,0)" xlink:href="#Y"/><use transform="matrix(0.06172839506172839,0,0,0.06172839506172839,14.814814814814813,0)" xlink:href="#aO"/><use transform="matrix(0.06172839506172839,0,0,0.06172839506172839,27.160493827160494,0)" xlink:href="#aP"/><use transform="matrix(0.06172839506172839,0,0,0.06172839506172839,39.50617283950617,0)" xlink:href="#ar"/><use transform="matrix(0.06172839506172839,0,0,0.06172839506172839,51.85185185185185,0)" xlink:href="#W"/></g><path fill="#3a414a" d="M205 0l-28-72H64L36 0H1l101-248h38L239 0h-34zm-38-99l-47-123c-12 45-31 82-46 123h93" id="aQ"/><path fill="#3a414a" d="M85-194c31 0 48 13 60 33l-1-100h32l1 261h-30c-2-10 0-23-3-31C134-8 116 4 85 4 32 4 16-35 15-94c0-66 23-100 70-100zm9 24c-40 0-46 34-46 75 0 40 6 74 45 74 42 0 51-32 51-76 0-42-9-74-50-73" id="aR"/><g id="s"><use transform="matrix(0.06172839506172839,0,0,0.06172839506172839,0,0)" xlink:href="#aQ"/><use transform="matrix(0.06172839506172839,0,0,0.06172839506172839,14.814814814814813,0)" xlink:href="#aR"/><use transform="matrix(0.06172839506172839,0,0,0.06172839506172839,27.160493827160494,0)" xlink:href="#aR"/><use transform="matrix(0.06172839506172839,0,0,0.06172839506172839,39.50617283950617,0)" xlink:href="#X"/><use transform="matrix(0.06172839506172839,0,0,0.06172839506172839,46.85185185185185,0)" xlink:href="#W"/><use transform="matrix(0.06172839506172839,0,0,0.06172839506172839,59.197530864197525,0)" xlink:href="#V"/><use transform="matrix(0.06172839506172839,0,0,0.06172839506172839,70.30864197530863,0)" xlink:href="#V"/></g><path fill="#3a414a" d="M115-194c55 1 70 41 70 98S169 2 115 4C84 4 66-9 55-30l1 105H24l-1-265h31l2 30c10-21 28-34 59-34zm-8 174c40 0 45-34 45-75s-6-73-45-74c-42 0-51 32-51 76 0 43 10 73 51 73" id="aS"/><path fill="#3a414a" d="M177-190C167-65 218 103 67 71c-23-6-38-20-44-43l32-5c15 47 100 32 89-28v-30C133-14 115 1 83 1 29 1 15-40 15-95c0-56 16-97 71-98 29-1 48 16 59 35 1-10 0-23 2-32h30zM94-22c36 0 50-32 50-73 0-42-14-75-50-75-39 0-46 34-46 75s6 73 46 73" id="aT"/><g id="t"><use transform="matrix(0.06172839506172839,0,0,0.06172839506172839,0,0)" xlink:href="#av"/><use transform="matrix(0.06172839506172839,0,0,0.06172839506172839,17.28395061728395,0)" xlink:href="#aS"/><use transform="matrix(0.06172839506172839,0,0,0.06172839506172839,29.629629629629626,0)" xlink:href="#W"/><use transform="matrix(0.06172839506172839,0,0,0.06172839506172839,41.9753086419753,0)" xlink:href="#ar"/><use transform="matrix(0.06172839506172839,0,0,0.06172839506172839,54.32098765432098,0)" xlink:href="#ax"/><use transform="matrix(0.06172839506172839,0,0,0.06172839506172839,59.197530864197525,0)" xlink:href="#ar"/><use transform="matrix(0.06172839506172839,0,0,0.06172839506172839,71.5432098765432,0)" xlink:href="#aT"/><use transform="matrix(0.06172839506172839,0,0,0.06172839506172839,83.88888888888889,0)" xlink:href="#ab"/><use transform="matrix(0.06172839506172839,0,0,0.06172839506172839,99.87654320987654,0)" xlink:href="#aq"/><use transform="matrix(0.06172839506172839,0,0,0.06172839506172839,112.22222222222223,0)" xlink:href="#ay"/><use transform="matrix(0.06172839506172839,0,0,0.06172839506172839,118.39506172839506,0)" xlink:href="#W"/></g><path fill="#333" d="M133-28C103 26-5 8 13-77c13-62 24-115 90-117 29-1 46 15 56 35l19-102h32L160 0h-30zM45-64c-2 27 10 43 35 43 54-1 69-50 69-103 0-29-15-46-42-46-53-1-58 58-62 106" id="aU"/><path fill="#333" d="M111-194c62-3 86 47 72 106H45c-7 38 6 69 45 68 27-1 43-14 53-32l24 11C152-15 129 4 87 4 38 3 12-23 12-71c0-70 32-119 99-123zm44 81c14-66-71-72-95-28-4 8-8 17-11 28h106" id="aV"/><path fill="#333" d="M50-231l6-30h32l-6 30H50zM6 0l37-190h31L37 0H6" id="aW"/><path fill="#333" d="M248-111c6-24 9-61-24-58-72 9-57 108-77 169h-31l26-142c3-37-50-30-64-10C52-115 50-51 37 0H6l36-190h30c-1 10-6 24-4 32 13-43 101-52 105 5 13-22 29-41 61-41 90 0 28 129 23 194h-31" id="aX"/><g id="u"><use transform="matrix(0.05,0,0,0.05,0,0)" xlink:href="#aU"/><use transform="matrix(0.05,0,0,0.05,10,0)" xlink:href="#aB"/><use transform="matrix(0.05,0,0,0.05,20,0)" xlink:href="#aL"/><use transform="matrix(0.05,0,0,0.05,25,0)" xlink:href="#aV"/><use transform="matrix(0.05,0,0,0.05,35,0)" xlink:href="#aL"/><use transform="matrix(0.05,0,0,0.05,40,0)" xlink:href="#aW"/><use transform="matrix(0.05,0,0,0.05,43.95,0)" xlink:href="#aX"/><use transform="matrix(0.05,0,0,0.05,58.900000000000006,0)" xlink:href="#aV"/></g><path fill="#3a414a" d="M30 0v-248h187v28H63v79h144v27H63v87h162V0H30" id="aY"/><path fill="#3a414a" d="M24 0v-261h32V0H24" id="aZ"/><g id="v"><use transform="matrix(0.06172839506172839,0,0,0.06172839506172839,0,0)" xlink:href="#aY"/><use transform="matrix(0.06172839506172839,0,0,0.06172839506172839,14.814814814814813,0)" xlink:href="#az"/><use transform="matrix(0.06172839506172839,0,0,0.06172839506172839,33.2716049382716,0)" xlink:href="#aq"/><use transform="matrix(0.06172839506172839,0,0,0.06172839506172839,45.61728395061728,0)" xlink:href="#ax"/><use transform="matrix(0.06172839506172839,0,0,0.06172839506172839,50.49382716049382,0)" xlink:href="#aZ"/></g><g id="w"><use transform="matrix(0.06172839506172839,0,0,0.06172839506172839,0,0)" xlink:href="#U"/><use transform="matrix(0.06172839506172839,0,0,0.06172839506172839,15.987654320987653,0)" xlink:href="#V"/><use transform="matrix(0.06172839506172839,0,0,0.06172839506172839,27.098765432098766,0)" xlink:href="#W"/><use transform="matrix(0.06172839506172839,0,0,0.06172839506172839,39.44444444444444,0)" xlink:href="#X"/><use transform="matrix(0.06172839506172839,0,0,0.06172839506172839,46.79012345679012,0)" xlink:href="#at"/><use transform="matrix(0.06172839506172839,0,0,0.06172839506172839,62.77777777777777,0)" xlink:href="#aq"/><use transform="matrix(0.06172839506172839,0,0,0.06172839506172839,75.12345679012346,0)" xlink:href="#az"/><use transform="matrix(0.06172839506172839,0,0,0.06172839506172839,93.58024691358024,0)" xlink:href="#W"/></g><path fill="#3a414a" d="M206 0h-36l-40-164L89 0H53L-1-190h32L70-26l43-164h34l41 164 42-164h31" id="ba"/><g id="x"><use transform="matrix(0.06172839506172839,0,0,0.06172839506172839,0,0)" xlink:href="#Y"/><use transform="matrix(0.06172839506172839,0,0,0.06172839506172839,14.814814814814813,0)" xlink:href="#aq"/><use transform="matrix(0.06172839506172839,0,0,0.06172839506172839,27.160493827160494,0)" xlink:href="#V"/><use transform="matrix(0.06172839506172839,0,0,0.06172839506172839,38.27160493827161,0)" xlink:href="#V"/><use transform="matrix(0.06172839506172839,0,0,0.06172839506172839,49.38271604938272,0)" xlink:href="#ba"/><use transform="matrix(0.06172839506172839,0,0,0.06172839506172839,65.37037037037038,0)" xlink:href="#aP"/><use transform="matrix(0.06172839506172839,0,0,0.06172839506172839,77.71604938271606,0)" xlink:href="#X"/><use transform="matrix(0.06172839506172839,0,0,0.06172839506172839,85.06172839506175,0)" xlink:href="#aR"/></g><path fill="#3a414a" d="M96-169c-40 0-48 33-48 73s9 75 48 75c24 0 41-14 43-38l32 2c-6 37-31 61-74 61-59 0-76-41-82-99-10-93 101-131 147-64 4 7 5 14 7 22l-32 3c-4-21-16-35-41-35" id="bb"/><path fill="#3a414a" d="M84 4C-5 8 30-112 23-190h32v120c0 31 7 50 39 49 72-2 45-101 50-169h31l1 190h-30c-1-10 1-25-2-33-11 22-28 36-60 37" id="bc"/><g id="y"><use transform="matrix(0.06172839506172839,0,0,0.06172839506172839,0,0)" xlink:href="#U"/><use transform="matrix(0.06172839506172839,0,0,0.06172839506172839,15.987654320987653,0)" xlink:href="#V"/><use transform="matrix(0.06172839506172839,0,0,0.06172839506172839,27.098765432098766,0)" xlink:href="#W"/><use transform="matrix(0.06172839506172839,0,0,0.06172839506172839,39.44444444444444,0)" xlink:href="#X"/><use transform="matrix(0.06172839506172839,0,0,0.06172839506172839,46.79012345679012,0)" xlink:href="#aQ"/><use transform="matrix(0.06172839506172839,0,0,0.06172839506172839,61.60493827160494,0)" xlink:href="#bb"/><use transform="matrix(0.06172839506172839,0,0,0.06172839506172839,72.71604938271605,0)" xlink:href="#bb"/><use transform="matrix(0.06172839506172839,0,0,0.06172839506172839,83.82716049382717,0)" xlink:href="#aP"/><use transform="matrix(0.06172839506172839,0,0,0.06172839506172839,96.17283950617285,0)" xlink:href="#bc"/><use transform="matrix(0.06172839506172839,0,0,0.06172839506172839,108.51851851851853,0)" xlink:href="#ar"/><use transform="matrix(0.06172839506172839,0,0,0.06172839506172839,120.86419753086422,0)" xlink:href="#ay"/></g><path fill="#3a414a" d="M68-38c1 34 0 65-14 84H32c9-13 17-26 17-46H33v-38h35" id="bd"/><g id="z"><use transform="matrix(0.06172839506172839,0,0,0.06172839506172839,0,0)" xlink:href="#Y"/><use transform="matrix(0.06172839506172839,0,0,0.06172839506172839,14.814814814814813,0)" xlink:href="#Z"/><use transform="matrix(0.06172839506172839,0,0,0.06172839506172839,29.629629629629626,0)" xlink:href="#bd"/><use transform="matrix(0.06172839506172839,0,0,0.06172839506172839,35.80246913580247,0)" xlink:href="#ao"/><use transform="matrix(0.06172839506172839,0,0,0.06172839506172839,49.32098765432099,0)" xlink:href="#Z"/></g><path fill="#3a414a" d="M179-190L93 31C79 59 56 82 12 73V49c39 6 53-20 64-50L1-190h34L92-34l54-156h33" id="be"/><g id="A"><use transform="matrix(0.06172839506172839,0,0,0.06172839506172839,0,0)" xlink:href="#aQ"/><use transform="matrix(0.06172839506172839,0,0,0.06172839506172839,14.814814814814813,0)" xlink:href="#bb"/><use transform="matrix(0.06172839506172839,0,0,0.06172839506172839,25.925925925925924,0)" xlink:href="#bb"/><use transform="matrix(0.06172839506172839,0,0,0.06172839506172839,37.03703703703704,0)" xlink:href="#aP"/><use transform="matrix(0.06172839506172839,0,0,0.06172839506172839,49.382716049382715,0)" xlink:href="#bc"/><use transform="matrix(0.06172839506172839,0,0,0.06172839506172839,61.72839506172839,0)" xlink:href="#ar"/><use transform="matrix(0.06172839506172839,0,0,0.06172839506172839,74.07407407407408,0)" xlink:href="#ay"/><use transform="matrix(0.06172839506172839,0,0,0.06172839506172839,80.24691358024691,0)" xlink:href="#au"/><use transform="matrix(0.06172839506172839,0,0,0.06172839506172839,92.53086419753086,0)" xlink:href="#be"/><use transform="matrix(0.06172839506172839,0,0,0.06172839506172839,103.64197530864197,0)" xlink:href="#aS"/><use transform="matrix(0.06172839506172839,0,0,0.06172839506172839,115.98765432098766,0)" xlink:href="#W"/><use transform="matrix(0.06172839506172839,0,0,0.06172839506172839,128.33333333333334,0)" xlink:href="#aa"/><use transform="matrix(0.06172839506172839,0,0,0.06172839506172839,134.50617283950618,0)" xlink:href="#ab"/></g><path fill="#3a414a" d="M115-194c53 0 69 39 70 98 0 66-23 100-70 100C84 3 66-7 56-30L54 0H23l1-261h32v101c10-23 28-34 59-34zm-8 174c40 0 45-34 45-75 0-40-5-75-45-74-42 0-51 32-51 76 0 43 10 73 51 73" id="bf"/><g id="B"><use transform="matrix(0.06172839506172839,0,0,0.06172839506172839,0,0)" xlink:href="#aQ"/><use transform="matrix(0.06172839506172839,0,0,0.06172839506172839,14.814814814814813,0)" xlink:href="#bb"/><use transform="matrix(0.06172839506172839,0,0,0.06172839506172839,25.925925925925924,0)" xlink:href="#bb"/><use transform="matrix(0.06172839506172839,0,0,0.06172839506172839,37.03703703703704,0)" xlink:href="#aP"/><use transform="matrix(0.06172839506172839,0,0,0.06172839506172839,49.382716049382715,0)" xlink:href="#bc"/><use transform="matrix(0.06172839506172839,0,0,0.06172839506172839,61.72839506172839,0)" xlink:href="#ar"/><use transform="matrix(0.06172839506172839,0,0,0.06172839506172839,74.07407407407408,0)" xlink:href="#ay"/><use transform="matrix(0.06172839506172839,0,0,0.06172839506172839,80.24691358024691,0)" xlink:href="#at"/><use transform="matrix(0.06172839506172839,0,0,0.06172839506172839,96.23456790123457,0)" xlink:href="#bc"/><use transform="matrix(0.06172839506172839,0,0,0.06172839506172839,108.58024691358025,0)" xlink:href="#az"/><use transform="matrix(0.06172839506172839,0,0,0.06172839506172839,127.03703703703702,0)" xlink:href="#bf"/><use transform="matrix(0.06172839506172839,0,0,0.06172839506172839,139.3827160493827,0)" xlink:href="#W"/><use transform="matrix(0.06172839506172839,0,0,0.06172839506172839,151.72839506172838,0)" xlink:href="#X"/></g><g id="C"><use transform="matrix(0.06172839506172839,0,0,0.06172839506172839,0,0)" xlink:href="#aa"/><use transform="matrix(0.06172839506172839,0,0,0.06172839506172839,6.172839506172839,0)" xlink:href="#ar"/><use transform="matrix(0.06172839506172839,0,0,0.06172839506172839,18.51851851851852,0)" xlink:href="#ay"/><use transform="matrix(0.06172839506172839,0,0,0.06172839506172839,24.691358024691358,0)" xlink:href="#W"/><use transform="matrix(0.06172839506172839,0,0,0.06172839506172839,37.03703703703704,0)" xlink:href="#aT"/><use transform="matrix(0.06172839506172839,0,0,0.06172839506172839,49.382716049382715,0)" xlink:href="#W"/><use transform="matrix(0.06172839506172839,0,0,0.06172839506172839,61.72839506172839,0)" xlink:href="#X"/></g><g id="D"><use transform="matrix(0.06172839506172839,0,0,0.06172839506172839,0,0)" xlink:href="#ap"/><use transform="matrix(0.06172839506172839,0,0,0.06172839506172839,14.814814814814813,0)" xlink:href="#aq"/><use transform="matrix(0.06172839506172839,0,0,0.06172839506172839,27.160493827160494,0)" xlink:href="#aZ"/><use transform="matrix(0.06172839506172839,0,0,0.06172839506172839,32.03703703703704,0)" xlink:href="#aq"/><use transform="matrix(0.06172839506172839,0,0,0.06172839506172839,44.382716049382715,0)" xlink:href="#ar"/><use transform="matrix(0.06172839506172839,0,0,0.06172839506172839,56.72839506172839,0)" xlink:href="#bb"/><use transform="matrix(0.06172839506172839,0,0,0.06172839506172839,67.8395061728395,0)" xlink:href="#W"/></g><g id="E"><use transform="matrix(0.06172839506172839,0,0,0.06172839506172839,0,0)" xlink:href="#ab"/><use transform="matrix(0.06172839506172839,0,0,0.06172839506172839,15.987654320987653,0)" xlink:href="#W"/><use transform="matrix(0.06172839506172839,0,0,0.06172839506172839,28.333333333333332,0)" xlink:href="#bb"/><use transform="matrix(0.06172839506172839,0,0,0.06172839506172839,39.44444444444444,0)" xlink:href="#ax"/><use transform="matrix(0.06172839506172839,0,0,0.06172839506172839,44.32098765432099,0)" xlink:href="#az"/><use transform="matrix(0.06172839506172839,0,0,0.06172839506172839,62.77777777777777,0)" xlink:href="#aq"/><use transform="matrix(0.06172839506172839,0,0,0.06172839506172839,75.12345679012346,0)" xlink:href="#aZ"/></g><path fill="#3a414a" d="M185-189c-5-48-123-54-124 2 14 75 158 14 163 119 3 78-121 87-175 55-17-10-28-26-33-46l33-7c5 56 141 63 141-1 0-78-155-14-162-118-5-82 145-84 179-34 5 7 8 16 11 25" id="bg"/><g id="F"><use transform="matrix(0.06172839506172839,0,0,0.06172839506172839,0,0)" xlink:href="#bg"/><use transform="matrix(0.06172839506172839,0,0,0.06172839506172839,14.814814814814813,0)" xlink:href="#ay"/><use transform="matrix(0.06172839506172839,0,0,0.06172839506172839,20.98765432098765,0)" xlink:href="#aq"/><use transform="matrix(0.06172839506172839,0,0,0.06172839506172839,33.33333333333333,0)" xlink:href="#ay"/><use transform="matrix(0.06172839506172839,0,0,0.06172839506172839,39.50617283950617,0)" xlink:href="#bc"/><use transform="matrix(0.06172839506172839,0,0,0.06172839506172839,51.85185185185185,0)" xlink:href="#V"/></g><path fill="#333" d="M68-162c25-46 127-43 121 31C183-60 169 1 98 4 69 5 53-11 43-31L36 0H5l52-261h31zm88 36c2-27-9-43-34-43-55 0-70 51-70 103 0 29 15 45 43 46 52 0 58-58 61-106" id="bh"/><g id="G"><use transform="matrix(0.05,0,0,0.05,0,0)" xlink:href="#bh"/><use transform="matrix(0.05,0,0,0.05,10,0)" xlink:href="#aK"/><use transform="matrix(0.05,0,0,0.05,20,0)" xlink:href="#aK"/><use transform="matrix(0.05,0,0,0.05,30,0)" xlink:href="#aN"/><use transform="matrix(0.05,0,0,0.05,33.95,0)" xlink:href="#aV"/><use transform="matrix(0.05,0,0,0.05,43.95,0)" xlink:href="#aB"/><use transform="matrix(0.05,0,0,0.05,53.95,0)" xlink:href="#aJ"/></g><path fill="#333" d="M76-167L44 0H12l33-167H18l4-23h27c3-47 25-81 82-69l-4 24c-35-8-44 15-46 45h37l-5 23H76" id="bi"/><g id="H"><use transform="matrix(0.05,0,0,0.05,0,0)" xlink:href="#aU"/><use transform="matrix(0.05,0,0,0.05,10,0)" xlink:href="#aV"/><use transform="matrix(0.05,0,0,0.05,20,0)" xlink:href="#bi"/><use transform="matrix(0.05,0,0,0.05,25,0)" xlink:href="#aB"/><use transform="matrix(0.05,0,0,0.05,35,0)" xlink:href="#aM"/><use transform="matrix(0.05,0,0,0.05,45,0)" xlink:href="#aN"/><use transform="matrix(0.05,0,0,0.05,48.95,0)" xlink:href="#aL"/></g><g id="I"><use transform="matrix(0.05,0,0,0.05,0,0)" xlink:href="#aL"/><use transform="matrix(0.05,0,0,0.05,5,0)" xlink:href="#aC"/><use transform="matrix(0.05,0,0,0.05,10.95,0)" xlink:href="#aM"/><use transform="matrix(0.05,0,0,0.05,20.95,0)" xlink:href="#aV"/></g><g id="J"><use transform="matrix(0.06172839506172839,0,0,0.06172839506172839,0,0)" xlink:href="#au"/><use transform="matrix(0.06172839506172839,0,0,0.06172839506172839,12.716049382716047,0)" xlink:href="#X"/><use transform="matrix(0.06172839506172839,0,0,0.06172839506172839,20.061728395061728,0)" xlink:href="#aq"/><use transform="matrix(0.06172839506172839,0,0,0.06172839506172839,32.407407407407405,0)" xlink:href="#ar"/><use transform="matrix(0.06172839506172839,0,0,0.06172839506172839,44.75308641975308,0)" xlink:href="#V"/><use transform="matrix(0.06172839506172839,0,0,0.06172839506172839,55.86419753086419,0)" xlink:href="#aq"/><use transform="matrix(0.06172839506172839,0,0,0.06172839506172839,68.20987654320987,0)" xlink:href="#bb"/><use transform="matrix(0.06172839506172839,0,0,0.06172839506172839,79.32098765432099,0)" xlink:href="#ay"/><use transform="matrix(0.06172839506172839,0,0,0.06172839506172839,85.49382716049382,0)" xlink:href="#ax"/><use transform="matrix(0.06172839506172839,0,0,0.06172839506172839,90.37037037037037,0)" xlink:href="#aP"/><use transform="matrix(0.06172839506172839,0,0,0.06172839506172839,102.71604938271605,0)" xlink:href="#ar"/><use transform="matrix(0.06172839506172839,0,0,0.06172839506172839,115.06172839506173,0)" xlink:href="#aa"/><use transform="matrix(0.06172839506172839,0,0,0.06172839506172839,121.23456790123457,0)" xlink:href="#ab"/></g><g id="K"><use transform="matrix(0.05,0,0,0.05,0,0)" xlink:href="#ad"/><use transform="matrix(0.05,0,0,0.05,12.950000000000001,0)" xlink:href="#ag"/><use transform="matrix(0.05,0,0,0.05,25.900000000000002,0)" xlink:href="#ah"/><use transform="matrix(0.05,0,0,0.05,35.900000000000006,0)" xlink:href="#ah"/></g><g id="L"><use transform="matrix(0.06172839506172839,0,0,0.06172839506172839,0,0)" xlink:href="#aQ"/><use transform="matrix(0.06172839506172839,0,0,0.06172839506172839,14.814814814814813,0)" xlink:href="#bb"/><use transform="matrix(0.06172839506172839,0,0,0.06172839506172839,25.925925925925924,0)" xlink:href="#bb"/><use transform="matrix(0.06172839506172839,0,0,0.06172839506172839,37.03703703703704,0)" xlink:href="#aP"/><use transform="matrix(0.06172839506172839,0,0,0.06172839506172839,49.382716049382715,0)" xlink:href="#bc"/><use transform="matrix(0.06172839506172839,0,0,0.06172839506172839,61.72839506172839,0)" xlink:href="#ar"/><use transform="matrix(0.06172839506172839,0,0,0.06172839506172839,74.07407407407408,0)" xlink:href="#ay"/><use transform="matrix(0.06172839506172839,0,0,0.06172839506172839,80.24691358024691,0)" xlink:href="#V"/></g><g id="M"><use transform="matrix(0.06172839506172839,0,0,0.06172839506172839,0,0)" xlink:href="#aQ"/><use transform="matrix(0.06172839506172839,0,0,0.06172839506172839,14.814814814814813,0)" xlink:href="#bb"/><use transform="matrix(0.06172839506172839,0,0,0.06172839506172839,25.925925925925924,0)" xlink:href="#bb"/><use transform="matrix(0.06172839506172839,0,0,0.06172839506172839,37.03703703703704,0)" xlink:href="#aP"/><use transform="matrix(0.06172839506172839,0,0,0.06172839506172839,49.382716049382715,0)" xlink:href="#bc"/><use transform="matrix(0.06172839506172839,0,0,0.06172839506172839,61.72839506172839,0)" xlink:href="#ar"/><use transform="matrix(0.06172839506172839,0,0,0.06172839506172839,74.07407407407408,0)" xlink:href="#ay"/><use transform="matrix(0.06172839506172839,0,0,0.06172839506172839,80.24691358024691,0)" xlink:href="#au"/><use transform="matrix(0.06172839506172839,0,0,0.06172839506172839,92.53086419753086,0)" xlink:href="#be"/><use transform="matrix(0.06172839506172839,0,0,0.06172839506172839,103.64197530864197,0)" xlink:href="#aS"/><use transform="matrix(0.06172839506172839,0,0,0.06172839506172839,115.98765432098766,0)" xlink:href="#W"/></g><g id="N"><use transform="matrix(0.06172839506172839,0,0,0.06172839506172839,0,0)" xlink:href="#ap"/><use transform="matrix(0.06172839506172839,0,0,0.06172839506172839,14.814814814814813,0)" xlink:href="#aq"/><use transform="matrix(0.06172839506172839,0,0,0.06172839506172839,27.160493827160494,0)" xlink:href="#ar"/><use transform="matrix(0.06172839506172839,0,0,0.06172839506172839,39.50617283950617,0)" xlink:href="#as"/><use transform="matrix(0.06172839506172839,0,0,0.06172839506172839,50.61728395061728,0)" xlink:href="#V"/></g><g id="O"><use transform="matrix(0.06172839506172839,0,0,0.06172839506172839,0,0)" xlink:href="#ap"/><use transform="matrix(0.06172839506172839,0,0,0.06172839506172839,14.814814814814813,0)" xlink:href="#aq"/><use transform="matrix(0.06172839506172839,0,0,0.06172839506172839,27.160493827160494,0)" xlink:href="#ar"/><use transform="matrix(0.06172839506172839,0,0,0.06172839506172839,39.50617283950617,0)" xlink:href="#as"/><use transform="matrix(0.06172839506172839,0,0,0.06172839506172839,50.61728395061728,0)" xlink:href="#at"/><use transform="matrix(0.06172839506172839,0,0,0.06172839506172839,66.60493827160494,0)" xlink:href="#aq"/><use transform="matrix(0.06172839506172839,0,0,0.06172839506172839,78.95061728395062,0)" xlink:href="#az"/><use transform="matrix(0.06172839506172839,0,0,0.06172839506172839,97.4074074074074,0)" xlink:href="#W"/></g><g id="P"><use transform="matrix(0.06172839506172839,0,0,0.06172839506172839,0,0)" xlink:href="#au"/><use transform="matrix(0.06172839506172839,0,0,0.06172839506172839,12.716049382716047,0)" xlink:href="#X"/><use transform="matrix(0.06172839506172839,0,0,0.06172839506172839,20.061728395061728,0)" xlink:href="#aq"/><use transform="matrix(0.06172839506172839,0,0,0.06172839506172839,32.407407407407405,0)" xlink:href="#ar"/><use transform="matrix(0.06172839506172839,0,0,0.06172839506172839,44.75308641975308,0)" xlink:href="#V"/><use transform="matrix(0.06172839506172839,0,0,0.06172839506172839,55.86419753086419,0)" xlink:href="#aq"/><use transform="matrix(0.06172839506172839,0,0,0.06172839506172839,68.20987654320987,0)" xlink:href="#bb"/><use transform="matrix(0.06172839506172839,0,0,0.06172839506172839,79.32098765432099,0)" xlink:href="#ay"/><use transform="matrix(0.06172839506172839,0,0,0.06172839506172839,85.49382716049382,0)" xlink:href="#ax"/><use transform="matrix(0.06172839506172839,0,0,0.06172839506172839,90.37037037037037,0)" xlink:href="#aP"/><use transform="matrix(0.06172839506172839,0,0,0.06172839506172839,102.71604938271605,0)" xlink:href="#ar"/><use transform="matrix(0.06172839506172839,0,0,0.06172839506172839,115.06172839506173,0)" xlink:href="#V"/></g><g id="Q"><use transform="matrix(0.06172839506172839,0,0,0.06172839506172839,0,0)" xlink:href="#ab"/><use transform="matrix(0.06172839506172839,0,0,0.06172839506172839,15.987654320987653,0)" xlink:href="#W"/><use transform="matrix(0.06172839506172839,0,0,0.06172839506172839,28.333333333333332,0)" xlink:href="#aS"/><use transform="matrix(0.06172839506172839,0,0,0.06172839506172839,40.67901234567901,0)" xlink:href="#aP"/><use transform="matrix(0.06172839506172839,0,0,0.06172839506172839,53.02469135802469,0)" xlink:href="#V"/><use transform="matrix(0.06172839506172839,0,0,0.06172839506172839,64.1358024691358,0)" xlink:href="#ax"/><use transform="matrix(0.06172839506172839,0,0,0.06172839506172839,69.01234567901234,0)" xlink:href="#ay"/></g><path fill="#3a414a" d="M266 0h-40l-56-210L115 0H75L2-248h35L96-30l15-64 43-154h32l59 218 59-218h35" id="bj"/><g id="R"><use transform="matrix(0.06172839506172839,0,0,0.06172839506172839,0,0)" xlink:href="#bj"/><use transform="matrix(0.06172839506172839,0,0,0.06172839506172839,20.925925925925924,0)" xlink:href="#ax"/><use transform="matrix(0.06172839506172839,0,0,0.06172839506172839,25.80246913580247,0)" xlink:href="#ay"/><use transform="matrix(0.06172839506172839,0,0,0.06172839506172839,31.975308641975307,0)" xlink:href="#aO"/><use transform="matrix(0.06172839506172839,0,0,0.06172839506172839,44.32098765432099,0)" xlink:href="#aR"/><use transform="matrix(0.06172839506172839,0,0,0.06172839506172839,56.666666666666664,0)" xlink:href="#X"/><use transform="matrix(0.06172839506172839,0,0,0.06172839506172839,64.01234567901234,0)" xlink:href="#aq"/><use transform="matrix(0.06172839506172839,0,0,0.06172839506172839,76.35802469135803,0)" xlink:href="#ba"/></g><path fill="#3a414a" d="M101-234c-31-9-42 10-38 44h38v23H63V0H32v-167H5v-23h27c-7-52 17-82 69-68v24" id="bk"/><path fill="#3a414a" d="M212-179c-10-28-35-45-73-45-59 0-87 40-87 99 0 60 29 101 89 101 43 0 62-24 78-52l27 14C228-24 195 4 139 4 59 4 22-46 18-125c-6-104 99-153 187-111 19 9 31 26 39 46" id="bl"/><path fill="#3a414a" d="M145-31C134-9 116 4 85 4 32 4 16-35 15-94c0-59 17-99 70-100 32-1 48 14 60 33 0-11-1-24 2-32h30l-1 268h-32zM93-21c41 0 51-33 51-76s-8-73-50-73c-40 0-46 35-46 75s5 74 45 74" id="bm"/><g id="S"><use transform="matrix(0.06172839506172839,0,0,0.06172839506172839,0,0)" xlink:href="#au"/><use transform="matrix(0.06172839506172839,0,0,0.06172839506172839,12.716049382716047,0)" xlink:href="#X"/><use transform="matrix(0.06172839506172839,0,0,0.06172839506172839,20.061728395061728,0)" xlink:href="#aq"/><use transform="matrix(0.06172839506172839,0,0,0.06172839506172839,32.407407407407405,0)" xlink:href="#ar"/><use transform="matrix(0.06172839506172839,0,0,0.06172839506172839,44.75308641975308,0)" xlink:href="#V"/><use transform="matrix(0.06172839506172839,0,0,0.06172839506172839,55.86419753086419,0)" xlink:href="#bk"/><use transform="matrix(0.06172839506172839,0,0,0.06172839506172839,62.03703703703703,0)" xlink:href="#W"/><use transform="matrix(0.06172839506172839,0,0,0.06172839506172839,74.38271604938271,0)" xlink:href="#X"/><use transform="matrix(0.06172839506172839,0,0,0.06172839506172839,81.72839506172839,0)" xlink:href="#au"/><use transform="matrix(0.06172839506172839,0,0,0.06172839506172839,92.77777777777777,0)" xlink:href="#aP"/><use transform="matrix(0.06172839506172839,0,0,0.06172839506172839,105.12345679012346,0)" xlink:href="#bl"/><use transform="matrix(0.06172839506172839,0,0,0.06172839506172839,121.11111111111111,0)" xlink:href="#aO"/><use transform="matrix(0.06172839506172839,0,0,0.06172839506172839,133.45679012345678,0)" xlink:href="#W"/><use transform="matrix(0.06172839506172839,0,0,0.06172839506172839,145.80246913580245,0)" xlink:href="#bm"/><use transform="matrix(0.06172839506172839,0,0,0.06172839506172839,158.14814814814812,0)" xlink:href="#bc"/><use transform="matrix(0.06172839506172839,0,0,0.06172839506172839,170.4938271604938,0)" xlink:href="#ax"/><use transform="matrix(0.06172839506172839,0,0,0.06172839506172839,175.37037037037032,0)" xlink:href="#ar"/><use transform="matrix(0.06172839506172839,0,0,0.06172839506172839,187.716049382716,0)" xlink:href="#aT"/></g><path fill="#3a414a" d="M108 0H70L1-190h34L89-25l56-165h34" id="bn"/><g id="T"><use transform="matrix(0.06172839506172839,0,0,0.06172839506172839,0,0)" xlink:href="#au"/><use transform="matrix(0.06172839506172839,0,0,0.06172839506172839,12.716049382716047,0)" xlink:href="#X"/><use transform="matrix(0.06172839506172839,0,0,0.06172839506172839,20.061728395061728,0)" xlink:href="#aq"/><use transform="matrix(0.06172839506172839,0,0,0.06172839506172839,32.407407407407405,0)" xlink:href="#ar"/><use transform="matrix(0.06172839506172839,0,0,0.06172839506172839,44.75308641975308,0)" xlink:href="#V"/><use transform="matrix(0.06172839506172839,0,0,0.06172839506172839,55.86419753086419,0)" xlink:href="#bk"/><use transform="matrix(0.06172839506172839,0,0,0.06172839506172839,62.03703703703703,0)" xlink:href="#W"/><use transform="matrix(0.06172839506172839,0,0,0.06172839506172839,74.38271604938271,0)" xlink:href="#X"/><use transform="matrix(0.06172839506172839,0,0,0.06172839506172839,81.72839506172839,0)" xlink:href="#au"/><use transform="matrix(0.06172839506172839,0,0,0.06172839506172839,92.77777777777777,0)" xlink:href="#aP"/><use transform="matrix(0.06172839506172839,0,0,0.06172839506172839,105.12345679012346,0)" xlink:href="#bg"/><use transform="matrix(0.06172839506172839,0,0,0.06172839506172839,119.93827160493827,0)" xlink:href="#aq"/><use transform="matrix(0.06172839506172839,0,0,0.06172839506172839,132.28395061728395,0)" xlink:href="#bn"/><use transform="matrix(0.06172839506172839,0,0,0.06172839506172839,143.39506172839506,0)" xlink:href="#ax"/><use transform="matrix(0.06172839506172839,0,0,0.06172839506172839,148.2716049382716,0)" xlink:href="#ar"/><use transform="matrix(0.06172839506172839,0,0,0.06172839506172839,160.61728395061726,0)" xlink:href="#aT"/></g></defs></g></svg>